<?xml version="1.0" standalone="no"?>
<!DOCTYPE svg PUBLIC "-//W3C//DTD SVG 1.1//EN" "http://www.w3.org/Graphics/SVG/1.1/DTD/svg11.dtd" >
<svg>
<metadata>
Created by FontForge 20090622 at Fri Oct 23 11:15:28 2015
 By deploy user
Copyright (c) The Font Bureau, Inc., 2003. All rights reserved.
</metadata>
<defs>
<font id="Agenda-Regular" horiz-adv-x="500" >
  <font-face 
    font-family="Agenda Regular"
    font-weight="400"
    font-stretch="normal"
    units-per-em="1000"
    panose-1="2 0 6 3 4 0 0 2 0 4"
    ascent="715"
    descent="-285"
    x-height="453"
    cap-height="638"
    bbox="-80 -235 1010 917"
    underline-thickness="20"
    underline-position="-60"
    unicode-range="U+0020-U+FB02"
  />
<missing-glyph horiz-adv-x="1000" 
 />
    <glyph glyph-name="fi" unicode="fi" horiz-adv-x="518" 
d="M461 0h-77v391h-215v-391h-77v391h-79v62h79v67q0 93 50.5 142.5t137.5 49.5q53 0 87 -14l-16 -65q-33 14 -66 14q-116 0 -116 -131v-63h292v-453z" />
    <glyph glyph-name="fl" unicode="fl" horiz-adv-x="542" 
d="M520 36l-52 -53q-32 9 -58 38t-26 82v511q-42 33 -99 33q-116 0 -116 -131v-63h108v-62h-108v-391h-77v391h-79v62h79v67q0 93 50.5 142.5t137.5 49.5q104 0 181 -69v-530q0 -31 17.5 -51.5t41.5 -25.5z" />
    <glyph glyph-name="f_f_l" unicode="ffl" horiz-adv-x="834" 
d="M812 36l-53 -53q-32 9 -58 38t-26 82v511q-42 33 -98 33q-116 0 -116 -131v-63h107v-62h-107v-391h-77v391h-215v-391h-77v391h-79v62h79v67q0 93 50.5 142.5t137.5 49.5q84 0 155 -49q51 49 137 49q103 0 180 -69v-530q0 -31 18 -51.5t42 -25.5zM398 605q-50 42 -113 42
q-116 0 -116 -131v-63h215v67q0 48 14 85z" />
    <glyph glyph-name="f_f_i" unicode="ffi" horiz-adv-x="809" 
d="M752 0h-77v391h-214v-391h-77v391h-215v-391h-77v391h-79v62h79v67q0 93 50.5 142.5t137.5 49.5q84 0 155 -49q51 49 137 49q52 0 86 -14l-15 -65q-33 14 -66 14q-116 0 -116 -131v-63h291v-453zM398 605q-50 42 -113 42q-116 0 -116 -131v-63h215v67q0 48 14 85z" />
    <glyph glyph-name="f_f" unicode="ff" horiz-adv-x="626" 
d="M658 698l-15 -65q-33 14 -66 14q-116 0 -116 -131v-63h137l-13 -62h-124v-391h-77v391h-215v-391h-77v391h-79v62h79v67q0 93 50.5 142.5t137.5 49.5q84 0 155 -49q51 49 137 49q52 0 86 -14zM398 605q-50 42 -113 42q-116 0 -116 -131v-63h215v67q0 48 14 85z" />
    <glyph glyph-name=".notdef" horiz-adv-x="1000" 
 />
    <glyph glyph-name=".null" horiz-adv-x="0" 
 />
    <glyph glyph-name="nonmarkingreturn" horiz-adv-x="333" 
 />
    <glyph glyph-name="space" unicode=" " horiz-adv-x="234" 
 />
    <glyph glyph-name="space" unicode="&#xa0;" horiz-adv-x="234" 
 />
    <glyph glyph-name="exclam" unicode="!" horiz-adv-x="255" 
d="M175 638l-14 -465l-64 16l-13 449h91zM187 45q0 -13 -20.5 -34t-34.5 -21t-34.5 21t-20.5 34t21 33.5t34 20.5t34 -20.5t21 -33.5z" />
    <glyph glyph-name="quotedbl" unicode="&#x22;" horiz-adv-x="295" 
d="M257 638l-15 -217h-42l-15 217h72zM109 638l-16 -217h-42l-13 217h71z" />
    <glyph glyph-name="numbersign" unicode="#" horiz-adv-x="386" 
d="M380 382h-65l-29 -126h66v-50h-78l-48 -206h-56l47 206h-101l-47 -206h-57l48 206h-54v50h66l29 126h-67v50h79l47 206h57l-48 -206h102l47 206h56l-47 -206h53v-50zM258 382h-101l-29 -126h101z" />
    <glyph glyph-name="dollar" unicode="$" horiz-adv-x="458" 
d="M417 173q0 -78 -47.5 -125.5t-122.5 -56.5v-88h-50v86q-89 3 -156 50l17 70q67 -52 151 -52q60 0 95.5 31.5t35.5 78.5q0 84 -122 128q-174 61 -174 185q0 67 42.5 112.5t110.5 55.5v89h50v-87q77 -3 130 -36l-16 -66q-59 35 -128 35q-53 0 -83 -28.5t-30 -67.5
q0 -69 113 -112q184 -69 184 -202z" />
    <glyph glyph-name="percent" unicode="%" horiz-adv-x="698" 
d="M659 128q0 -62 -39.5 -100.5t-99.5 -38.5t-99 38.5t-39 100.5q0 60 39 99.5t99 39.5t99.5 -39.5t39.5 -99.5zM595 128q0 36 -21.5 57.5t-53.5 21.5t-53.5 -21.5t-21.5 -57.5q0 -37 21.5 -59t53.5 -22t53.5 22t21.5 59zM628 628l-524 -649l-39 32l525 649zM313 511
q0 -62 -39 -101t-99 -39t-99.5 39t-39.5 101q0 60 39.5 99.5t99.5 39.5q59 0 98.5 -39t39.5 -100zM249 511q0 36 -21 57t-53 21t-53.5 -21t-21.5 -57q0 -37 21.5 -59t53.5 -22t53 22t21 59z" />
    <glyph glyph-name="ampersand" unicode="&#x26;" horiz-adv-x="614" 
d="M608 0h-104l-64 64q-84 -75 -201 -75q-87 0 -142.5 49t-55.5 120q0 60 31 102.5t94 78.5q-84 86 -84 156q0 69 47.5 112t113.5 43q68 0 118 -43t50 -112q0 -99 -126 -171l153 -154q47 63 70 141l52 -52q-26 -80 -71 -140zM337 494q0 38 -25.5 64t-68.5 26
q-38 0 -62.5 -25.5t-24.5 -59.5q0 -29 18 -56t60 -68q103 57 103 119zM388 115l-172 173q-48 -26 -72.5 -55t-24.5 -71q0 -45 35.5 -75.5t88.5 -30.5q80 0 145 59z" />
    <glyph glyph-name="quotesingle" unicode="'" horiz-adv-x="147" 
d="M109 638l-16 -217h-42l-13 217h71z" />
    <glyph glyph-name="parenleft" unicode="(" horiz-adv-x="237" 
d="M231 693q-114 -209 -114 -452t110 -467l-81 19q-52 102 -78.5 206t-26.5 241q0 259 113 470z" />
    <glyph glyph-name="parenright" unicode=")" horiz-adv-x="237" 
d="M196 243q0 -260 -113 -470l-77 18q115 211 115 452q0 239 -110 467l80 -20q52 -102 78.5 -206t26.5 -241z" />
    <glyph glyph-name="asterisk" unicode="*" horiz-adv-x="412" 
d="M398 522l-148 -40l88 -109l-48 -53l-85 128l-74 -116l-66 30l96 120l-134 35l8 70l142 -54l-7 138l71 16l-8 -153l128 50z" />
    <glyph glyph-name="plus" unicode="+" horiz-adv-x="458" 
d="M416 244h-150v-143h-73v143h-151v66h151v143h73v-143h150v-66z" />
    <glyph glyph-name="comma" unicode="," horiz-adv-x="192" 
d="M151 45q0 -37 -25.5 -87.5t-55.5 -80.5l-28 5q46 56 46 117q-14 2 -30.5 18.5t-16.5 27.5q0 15 21 34.5t34 19.5t34 -20t21 -34z" />
    <glyph glyph-name="hyphen" unicode="-" horiz-adv-x="334" 
d="M292 244h-250v66h250v-66z" />
    <glyph glyph-name="hyphen" unicode="&#xad;" horiz-adv-x="334" 
d="M292 244h-250v66h250v-66z" />
    <glyph glyph-name="period" unicode="." horiz-adv-x="192" 
d="M151 45q0 -13 -20.5 -34t-34.5 -21t-34.5 21t-20.5 34t21 33.5t34 20.5t34 -20.5t21 -33.5z" />
    <glyph glyph-name="slash" unicode="/" horiz-adv-x="468" 
d="M430 640l-408 -801l-58 30l409 801z" />
    <glyph glyph-name="zero" unicode="0" horiz-adv-x="510" 
d="M469 320q0 -158 -62 -244.5t-152 -86.5q-91 0 -152.5 86.5t-61.5 244.5q0 157 61.5 243.5t152.5 86.5q90 0 152 -86.5t62 -243.5zM391 320q0 128 -39.5 194.5t-96.5 66.5q-58 0 -97 -66t-39 -195q0 -130 39 -196t97 -66q57 0 96.5 66t39.5 196z" />
    <glyph glyph-name="one" unicode="1" horiz-adv-x="263" 
d="M196 0h-77v576l-113 -12l15 65l175 17v-646z" />
    <glyph glyph-name="two" unicode="2" horiz-adv-x="454" 
d="M413 0h-377v16q270 299 270 441q0 63 -32.5 95.5t-84.5 32.5q-69 0 -124 -38l-18 65q60 38 141 38q87 0 140 -51t53 -144q0 -82 -59 -178t-164 -213h255v-64z" />
    <glyph glyph-name="three" unicode="3" horiz-adv-x="434" 
d="M392 190q0 -88 -60.5 -144t-165.5 -56q-61 0 -113 25l-9 74q53 -34 118 -34t110.5 38t45.5 105q0 54 -40.5 93t-97.5 39q-16 0 -25 -2l-16 62q57 10 92.5 40t35.5 69q0 38 -26 62t-70 24q-54 0 -104 -30l-15 62q55 32 121 32q74 0 121 -40.5t47 -102.5q0 -49 -28 -83.5
t-70 -45.5q61 -9 105 -59.5t44 -127.5z" />
    <glyph glyph-name="four" unicode="4" horiz-adv-x="476" 
d="M435 177h-73v-177h-77v177h-265l-14 62l304 399h52v-398h73v-63zM286 502l-2 1q-12 -19 -65 -89l-132 -174h198v175q0 56 1 87z" />
    <glyph glyph-name="five" unicode="5" horiz-adv-x="455" 
d="M414 192q0 -86 -58.5 -144.5t-160.5 -58.5q-75 0 -124 29l-9 74q61 -38 129 -38q62 0 105 38.5t43 100.5q0 63 -42 102.5t-103 39.5t-113 -20l10 323h273l-15 -63h-187l-5 -181q27 6 43 6q91 0 152.5 -57t61.5 -151z" />
    <glyph glyph-name="six" unicode="6" horiz-adv-x="497" 
d="M461 194q0 -89 -58.5 -147t-148.5 -58t-151.5 61t-61.5 166q0 127 83 250.5t211 190.5l77 -36q-200 -103 -265 -273q43 50 111 50q89 0 146 -58t57 -146zM383 190q0 59 -36.5 98t-93.5 39q-47 0 -83 -24t-49 -75q-1 -10 -1 -31q0 -60 40 -101.5t95 -41.5t91.5 38t36.5 98
z" />
    <glyph glyph-name="seven" unicode="7" horiz-adv-x="448" 
d="M425 638l-273 -638h-83l246 572h-309v66h419z" />
    <glyph glyph-name="eight" unicode="8" horiz-adv-x="503" 
d="M462 175q0 -85 -61 -135.5t-150 -50.5t-149.5 50.5t-60.5 135.5q0 65 41.5 111t92.5 63q-44 16 -75 54t-31 89q0 70 52 114t130 44t130 -44t52 -114q0 -50 -31 -88t-74 -53q49 -15 91.5 -62.5t42.5 -113.5zM359 490q0 41 -31 68t-76 27q-44 0 -75.5 -27t-31.5 -68
q0 -36 30 -65.5t80 -43.5q48 14 76 43.5t28 65.5zM384 177q0 48 -41.5 85t-97.5 51q-54 -15 -92.5 -51t-38.5 -85q0 -53 39.5 -86.5t94.5 -33.5q56 0 96 33.5t40 86.5z" />
    <glyph glyph-name="nine" unicode="9" horiz-adv-x="497" 
d="M456 424q0 -127 -83 -250.5t-211 -190.5l-77 35q203 105 266 274q-43 -50 -112 -50q-89 0 -146 58t-57 146t59 146t149 58t151 -60.5t61 -165.5zM377 437q0 60 -40 102t-95 42t-91.5 -38t-36.5 -98q0 -59 36.5 -98t93.5 -39q47 0 83 24.5t49 75.5q1 10 1 29z" />
    <glyph glyph-name="colon" unicode=":" horiz-adv-x="192" 
d="M151 409q0 -13 -21 -34t-34 -21t-34 21t-21 34t20.5 34t34.5 21t34.5 -21t20.5 -34zM151 45q0 -13 -20.5 -34t-34.5 -21t-34.5 21t-20.5 34t21 33.5t34 20.5t34 -20.5t21 -33.5z" />
    <glyph glyph-name="semicolon" unicode=";" horiz-adv-x="192" 
d="M151 409q0 -13 -21 -34t-34 -21t-34 21t-21 34t20.5 34t34.5 21t34.5 -21t20.5 -34zM151 45q0 -37 -25.5 -87.5t-55.5 -80.5l-28 5q46 56 46 117q-14 2 -30.5 18.5t-16.5 27.5q0 15 21 34.5t34 19.5t34 -20t21 -34z" />
    <glyph glyph-name="less" unicode="&#x3c;" horiz-adv-x="458" 
d="M416 109l-374 123v91l374 123v-70l-312 -99l312 -99v-69z" />
    <glyph glyph-name="equal" unicode="=" horiz-adv-x="458" 
d="M416 330h-374v66h374v-66zM416 158h-374v66h374v-66z" />
    <glyph glyph-name="greater" unicode="&#x3e;" horiz-adv-x="458" 
d="M416 232l-374 -123v69l312 99l-312 99v70l374 -123v-91z" />
    <glyph glyph-name="question" unicode="?" horiz-adv-x="374" 
d="M336 493q0 -41 -19.5 -73.5t-65.5 -81.5q-45 -49 -45 -103q0 -39 5 -62l-70 16q-7 31 -7 53q0 86 59 145q32 32 46.5 56.5t14.5 56.5q0 31 -25 56t-65 25q-57 0 -111 -35l-16 69q54 35 126 35q76 0 124.5 -42t48.5 -115zM233 45q0 -14 -20.5 -34.5t-34.5 -20.5t-34.5 21
t-20.5 34t21 33.5t34 20.5q14 0 34.5 -20.5t20.5 -33.5z" />
    <glyph glyph-name="at" unicode="@" horiz-adv-x="757" 
d="M716 332q0 -78 -44 -137.5t-119 -59.5q-29 0 -52.5 15.5t-29.5 46.5q-25 -62 -105 -62q-51 0 -83.5 30.5t-32.5 75.5q0 48 34 76.5t83 33.5l84 8v24q0 27 -18.5 43.5t-54.5 16.5q-49 0 -96 -29l-14 54q48 31 113 31q60 0 97.5 -32t37.5 -89v-148q0 -44 38 -44q44 0 74 39
t30 107q0 114 -83 188.5t-194 74.5q-114 0 -197.5 -75.5t-83.5 -199.5q0 -123 81.5 -198.5t190.5 -75.5q59 0 92 12l-6 -53q-28 -11 -89 -11q-133 0 -230.5 91t-97.5 237q0 145 100.5 236.5t238.5 91.5q137 0 236.5 -89.5t99.5 -228.5zM451 270v35l-71 -7q-67 -7 -67 -58
q0 -21 16 -35.5t41 -14.5q32 0 56.5 22.5t24.5 57.5z" />
    <glyph glyph-name="A" unicode="A" horiz-adv-x="610" 
d="M587 0h-83l-71 172h-259l-70 -172h-81l267 647h30zM405 238l-70 176q-14 36 -30 88h-2q-8 -31 -31 -88l-70 -176h203z" />
    <glyph glyph-name="B" unicode="B" horiz-adv-x="513" 
d="M472 192q0 -89 -61.5 -140.5t-143.5 -51.5h-200v638h167q70 0 123 -44t53 -119q0 -38 -18 -70.5t-47 -44.5q51 -12 89 -60t38 -108zM328 475q0 45 -30 70t-76 25h-77v-188h78q45 0 75 24t30 69zM390 192q0 58 -41 91t-101 33h-103v-248h106q58 0 98.5 32.5t40.5 91.5z
" />
    <glyph glyph-name="C" unicode="C" horiz-adv-x="604" 
d="M563 602l-15 -70q-66 43 -163 43q-108 0 -186.5 -70t-78.5 -187q0 -118 78 -187.5t187 -69.5q100 0 167 39l-8 -73q-60 -33 -167 -33q-63 0 -122.5 22.5t-107.5 62.5t-77 102.5t-29 137.5t29.5 138t77 103t107 62t121.5 22q112 0 187 -42z" />
    <glyph glyph-name="D" unicode="D" horiz-adv-x="639" 
d="M598 319q0 -147 -101.5 -233t-247.5 -86h-182v638h182q146 0 247.5 -86t101.5 -233zM514 318q0 120 -78 184.5t-201 64.5h-85v-498h85q123 0 201 64.5t78 184.5z" />
    <glyph glyph-name="E" unicode="E" horiz-adv-x="447" 
d="M441 0h-374v638h338v-71h-256v-211h213v-71h-213v-214h292v-71z" />
    <glyph glyph-name="F" unicode="F" horiz-adv-x="419" 
d="M413 567h-264v-211h224v-71h-224v-285h-82v638h346v-71z" />
    <glyph glyph-name="G" unicode="G" horiz-adv-x="677" 
d="M620 57q-88 -68 -233 -68q-89 0 -167 37.5t-128.5 114.5t-50.5 178q0 102 51.5 179.5t128 114.5t161.5 37q123 0 203 -50l-16 -73q-79 50 -178 50q-108 0 -187.5 -70t-79.5 -190t79 -189.5t189 -69.5q95 0 150 38v154h-158v66h236v-259z" />
    <glyph glyph-name="H" unicode="H" horiz-adv-x="646" 
d="M579 0h-83v285h-347v-285h-82v638h82v-282h347v282h83v-638z" />
    <glyph glyph-name="I" unicode="I" horiz-adv-x="236" 
d="M159 0h-82v638h82v-638z" />
    <glyph glyph-name="J" unicode="J" horiz-adv-x="236" 
d="M159 128q0 -109 -55 -174.5t-131 -80.5l-53 55q157 30 157 208v502h82v-510z" />
    <glyph glyph-name="K" unicode="K" horiz-adv-x="531" 
d="M518 0h-106l-262 303h-1v-303h-82v638h82v-304h1l264 304h93l-273 -312z" />
    <glyph glyph-name="L" unicode="L" horiz-adv-x="444" 
d="M438 0h-371v638h82v-567h289v-71z" />
    <glyph glyph-name="M" unicode="M" horiz-adv-x="813" 
d="M765 0h-78l-26 309q-7 87 -10 156h-2q-21 -49 -76 -159l-154 -310h-31l-156 310q-27 53 -74 157h-2q-3 -79 -10 -154l-26 -309h-73l53 638h52l172 -343q62 -124 82 -171h2q26 65 80 172l171 342h52z" />
    <glyph glyph-name="N" unicode="N" horiz-adv-x="697" 
d="M630 -12h-24l-306 341l-151 176l-2 -1q2 -58 2 -168v-336h-82v638h57l285 -319q92 -103 139 -162l2 1q-2 53 -2 159v321h82v-650z" />
    <glyph glyph-name="O" unicode="O" horiz-adv-x="754" 
d="M713 320q0 -98 -48 -175t-124.5 -116.5t-163.5 -39.5t-163.5 39.5t-124.5 116.5t-48 175q0 146 100.5 238t235.5 92t235.5 -92t100.5 -238zM630 318q0 116 -76 187.5t-177 71.5q-102 0 -177.5 -71.5t-75.5 -187.5t75.5 -188t177.5 -72q101 0 177 72t76 188z" />
    <glyph glyph-name="P" unicode="P" horiz-adv-x="487" 
d="M451 462q0 -82 -57 -129t-132 -47h-114v-286h-81v638h194q76 0 133 -47t57 -129zM367 460q0 50 -35 78.5t-85 28.5h-99v-213h100q50 0 84.5 28t34.5 78z" />
    <glyph glyph-name="Q" unicode="Q" horiz-adv-x="754" 
d="M753 -48l-53 -74q-17 -5 -37 -5q-84 0 -178 49q-48 26 -141 68q-126 11 -214.5 101.5t-88.5 228.5q0 146 100.5 238t235.5 92t235.5 -92t100.5 -238q0 -123 -74.5 -210t-184.5 -102v-2q36 -6 88 -31q77 -37 137 -37q39 0 74 14zM630 318q0 116 -76 187.5t-177 71.5
q-102 0 -177.5 -71.5t-75.5 -187.5t75.5 -188t177.5 -72q101 0 177 72t76 188z" />
    <glyph glyph-name="R" unicode="R" horiz-adv-x="514" 
d="M543 0h-102l-206 286h-87v-286h-81v638h184q76 0 133 -47t57 -129q0 -60 -33 -102.5t-86 -60.5zM357 460q0 50 -35 78.5t-85 28.5h-89v-213h90q50 0 84.5 28t34.5 78z" />
    <glyph glyph-name="S" unicode="S" horiz-adv-x="471" 
d="M430 177q0 -83 -56 -132.5t-153 -49.5q-100 0 -165 46l-10 83q78 -61 178 -61q57 0 92.5 29.5t35.5 77.5q0 47 -28.5 76.5t-91.5 51.5q-85 29 -126.5 72.5t-41.5 109.5q0 67 50 115.5t141 48.5q82 0 135 -36l-16 -66q-52 37 -121 37q-52 0 -83 -27.5t-31 -65.5t26.5 -64
t82.5 -46q91 -33 136.5 -77.5t45.5 -121.5z" />
    <glyph glyph-name="T" unicode="T" horiz-adv-x="518" 
d="M512 567h-212v-567h-82v567h-212v71h506v-71z" />
    <glyph glyph-name="U" unicode="U" horiz-adv-x="643" 
d="M576 223q0 -108 -70.5 -171t-183.5 -63t-184 63t-71 171v415h82v-407q0 -79 45 -124t128 -45q84 0 129 45t45 124v407h80v-415z" />
    <glyph glyph-name="V" unicode="V" horiz-adv-x="581" 
d="M558 638l-254 -648h-26l-255 648h86l127 -324q27 -68 58 -163h2q36 108 58 163l126 324h78z" />
    <glyph glyph-name="W" unicode="W" horiz-adv-x="916" 
d="M893 638l-226 -648h-28l-122 355q-45 132 -58 178h-2q-18 -64 -57 -178l-123 -355h-29l-225 648h83l109 -316q44 -129 51 -157h2q12 42 50 157l108 316h71l110 -316q24 -70 48 -157h2q8 32 51 157l110 316h75z" />
    <glyph glyph-name="X" unicode="X" horiz-adv-x="590" 
d="M549 0h-93l-109 176q-28 44 -52 88h-2q-21 -38 -53 -88l-112 -176h-87l205 324l-195 314h93l104 -167q31 -50 49 -83h2q27 50 48 83l105 167h88l-195 -309z" />
    <glyph glyph-name="Y" unicode="Y" horiz-adv-x="615" 
d="M592 638l-245 -344v-294h-80v294l-244 344h90l133 -187l63 -94h2q28 45 63 94l133 187h85z" />
    <glyph glyph-name="Z" unicode="Z" horiz-adv-x="527" 
d="M486 0h-445v20l211 365l109 181l-1 1h-299v71h413v-20l-213 -366l-108 -180l1 -1h332v-71z" />
    <glyph glyph-name="bracketleft" unicode="[" horiz-adv-x="277" 
d="M271 -218h-204v918h204v-65h-128v-788h128v-65z" />
    <glyph glyph-name="backslash" unicode="\" horiz-adv-x="468" 
d="M504 -131l-58 -30l-408 801l57 30z" />
    <glyph glyph-name="bracketright" unicode="]" horiz-adv-x="277" 
d="M210 -218h-204v65h129v788h-129v65h204v-918z" />
    <glyph glyph-name="asciicircum" unicode="^" 
d="M412 537l-53 -23q-68 42 -113 84q-50 -47 -110 -84l-48 21q80 62 135 139q12 17 27 17t27 -17q52 -73 135 -137z" />
    <glyph glyph-name="underscore" unicode="_" 
d="M502 -231h-503v66h503v-66z" />
    <glyph glyph-name="grave" unicode="`" 
d="M296 536l-51 -22q-85 52 -139 113q-13 13 -13 22q0 10 16 25.5t26 15.5q14 0 26 -16q56 -78 135 -138z" />
    <glyph glyph-name="a" unicode="a" horiz-adv-x="440" 
d="M427 39l-49 -50q-26 6 -47 26t-25 50q-14 -38 -47.5 -57t-77.5 -19q-64 0 -104.5 40t-40.5 97q0 62 43 99t105 43l113 11v36q0 37 -25 59.5t-73 22.5q-70 0 -122 -35l-16 64q58 38 142 38q76 0 123.5 -41.5t47.5 -116.5v-195q0 -31 15 -49.5t38 -22.5zM297 164v51l-97 -9
q-43 -4 -66.5 -26.5t-23.5 -54.5q0 -30 21.5 -50t56.5 -20q44 0 76.5 30.5t32.5 78.5z" />
    <glyph glyph-name="b" unicode="b" horiz-adv-x="532" 
d="M496 229q0 -105 -67.5 -172.5t-178.5 -67.5q-54 0 -106 16.5t-82 38.5v668h74v-291q16 17 54 30t77 13q99 0 164 -66.5t65 -168.5zM421 227q0 74 -46 122t-115 48q-79 0 -124 -48v-268q47 -28 107 -28q81 0 129 48t49 126z" />
    <glyph glyph-name="c" unicode="c" horiz-adv-x="454" 
d="M418 425l-15 -68q-57 36 -122 36q-72 0 -121.5 -47t-49.5 -121q0 -73 50.5 -120.5t121.5 -47.5q65 0 122 30l-8 -69q-50 -24 -120 -24q-98 0 -169 64t-71 168t70.5 168.5t169.5 64.5q81 0 142 -34z" />
    <glyph glyph-name="d" unicode="d" horiz-adv-x="534" 
d="M472 0h-73v50h-1q-43 -61 -140 -61q-87 0 -154.5 64.5t-67.5 172.5q0 104 65.5 171t165.5 67q39 0 76 -13t52 -30v291h77v-712zM395 115v230q-44 49 -121 49q-68 0 -114 -47.5t-46 -121.5q0 -75 46 -122t114 -47q80 0 121 59z" />
    <glyph glyph-name="e" unicode="e" horiz-adv-x="488" 
d="M452 290q0 -20 -3 -33l-42 -43h-295q0 -61 47.5 -110.5t126.5 -49.5q76 0 132 39l-9 -73q-55 -31 -132 -31q-100 0 -170.5 67t-70.5 170q0 106 67.5 172t153.5 66q89 0 142 -52.5t53 -121.5zM377 288q0 43 -32 77.5t-84 34.5q-51 0 -93 -37t-51 -89h259q1 4 1 14z" />
    <glyph glyph-name="f" unicode="f" horiz-adv-x="334" 
d="M367 698l-16 -65q-33 14 -66 14q-116 0 -116 -131v-63h151l-16 -62h-135v-391h-77v391h-79v62h79v67q0 93 50.5 142.5t137.5 49.5q53 0 87 -14z" />
    <glyph glyph-name="g" unicode="g" horiz-adv-x="461" 
d="M437 -84q0 -64 -56 -105.5t-144 -41.5q-91 0 -147.5 45t-56.5 115q0 56 30 91t71 43l-48 48q0 26 17 46.5t45 26.5q-35 16 -58.5 49.5t-23.5 78.5q0 66 47 109t121 43q27 0 59 -8q22 -7 60 -7t68 17l15 -64q-26 -16 -63 -14q28 -26 28 -76q0 -63 -46 -107.5t-121 -44.5
q-66 0 -66 -30q0 -15 23 -23l122 -43q62 -21 93 -56t31 -92zM330 313q0 36 -27.5 61.5t-68.5 25.5t-69 -25.5t-28 -61.5q0 -37 27.5 -62.5t69.5 -25.5q39 0 67.5 25.5t28.5 62.5zM364 -83q0 59 -75 82l-89 27q-42 0 -69 -28t-27 -69q0 -39 35 -67t96 -28q59 0 94 25t35 58z
" />
    <glyph glyph-name="h" unicode="h" horiz-adv-x="507" 
d="M450 0h-77v295q0 44 -29.5 73t-85.5 29q-55 0 -87 -29.5t-32 -72.5v-295h-77v712h77v-313h1q34 65 137 65q76 0 124.5 -44t48.5 -118v-302z" />
    <glyph glyph-name="i" unicode="i" horiz-adv-x="213" 
d="M156 592q0 -12 -18.5 -31t-31.5 -19q-12 0 -30.5 19t-18.5 31q0 13 18.5 31t30.5 18q13 0 31.5 -18t18.5 -31zM145 0h-78v453h78v-453z" />
    <glyph glyph-name="j" unicode="j" horiz-adv-x="213" 
d="M156 592q0 -12 -18.5 -31t-31.5 -19q-12 0 -30.5 19t-18.5 31q0 13 18.5 31t30.5 18q13 0 31.5 -18t18.5 -31zM145 -50q0 -68 -37.5 -118t-89.5 -63l-49 49q98 22 98 138v497h78v-503z" />
    <glyph glyph-name="k" unicode="k" horiz-adv-x="445" 
d="M441 0h-100l-201 217h-1v-217h-77v712h77v-475h1l201 216h91l-205 -223z" />
    <glyph glyph-name="l" unicode="l" horiz-adv-x="221" 
d="M199 36l-53 -53q-32 9 -58 38t-26 82v609h77v-599q0 -31 18 -51.5t42 -25.5z" />
    <glyph glyph-name="m" unicode="m" horiz-adv-x="774" 
d="M717 0h-77v299q0 98 -105 98q-56 0 -82.5 -27.5t-26.5 -70.5v-299h-78v299q0 98 -104 98q-56 0 -83 -27.5t-27 -70.5v-299h-77v453h72v-60h1q29 71 134 71q46 0 82.5 -19t53.5 -53q16 31 56 51.5t91 20.5q77 0 123.5 -42.5t46.5 -115.5v-306z" />
    <glyph glyph-name="n" unicode="n" horiz-adv-x="502" 
d="M445 0h-77v295q0 44 -29.5 73t-85.5 29q-55 0 -87 -29.5t-32 -72.5v-295h-77v453h71v-63h1q31 74 143 74q76 0 124.5 -44t48.5 -118v-302z" />
    <glyph glyph-name="o" unicode="o" horiz-adv-x="551" 
d="M515 226q0 -103 -68.5 -170t-170.5 -67t-171 67t-69 170q0 104 69 171t171 67t170.5 -67t68.5 -171zM437 224q0 74 -47 122t-114 48q-68 0 -115 -48t-47 -122t47 -121t115 -47q67 0 114 47t47 121z" />
    <glyph glyph-name="p" unicode="p" horiz-adv-x="529" 
d="M493 227q0 -104 -65.5 -171t-165.5 -67q-39 0 -76 13t-52 30v-263h-77v684h73v-50h1q43 61 140 61q87 0 154.5 -64.5t67.5 -172.5zM415 225q0 75 -46 122t-114 47q-80 0 -121 -59v-230q44 -49 121 -49q68 0 114 47.5t46 121.5z" />
    <glyph glyph-name="q" unicode="q" horiz-adv-x="527" 
d="M470 -231h-74v263q-16 -17 -52 -30t-74 -13q-100 0 -167 67t-67 168q0 105 67 172.5t174 67.5q75 0 138 -38l34 34h21v-691zM396 101v258q-14 14 -48 26t-63 12q-77 0 -125.5 -48.5t-48.5 -125.5q0 -73 48 -121.5t118 -48.5q74 0 119 48z" />
    <glyph glyph-name="r" unicode="r" horiz-adv-x="322" 
d="M312 453l-18 -77q-20 5 -34 5q-55 0 -92 -36.5t-37 -114.5v-230h-74v453h74v-99h1q11 48 47.5 76.5t88.5 28.5q28 0 44 -6z" />
    <glyph glyph-name="s" unicode="s" horiz-adv-x="368" 
d="M332 123q0 -57 -42 -93t-115 -36q-75 0 -125 35l-10 80q59 -52 136 -52q36 0 59 17.5t23 45.5q0 49 -75 76q-67 24 -100 56.5t-33 83.5q0 54 40 88.5t103 34.5q66 0 113 -29l-16 -63q-40 30 -98 30q-31 0 -50.5 -16t-19.5 -42t17 -40.5t55 -28.5q69 -25 103.5 -59
t34.5 -88z" />
    <glyph glyph-name="t" unicode="t" horiz-adv-x="353" 
d="M341 453l-14 -60h-150v-265q0 -72 73 -72q26 0 44 8l-7 -60q-18 -9 -50 -9q-58 0 -95.5 33.5t-37.5 92.5v272h-90v60h90v96l73 38v-134h164z" />
    <glyph glyph-name="u" unicode="u" horiz-adv-x="502" 
d="M445 0h-71v63h-1q-31 -74 -143 -74q-76 0 -124.5 44t-48.5 118v302h77v-295q0 -44 29.5 -73t85.5 -29q55 0 87 29.5t32 72.5v295h77v-453z" />
    <glyph glyph-name="v" unicode="v" horiz-adv-x="458" 
d="M435 453l-191 -462h-31l-190 462h78l91 -220q16 -41 39 -110h2q16 48 40 110l90 220h72z" />
    <glyph glyph-name="w" unicode="w" horiz-adv-x="697" 
d="M674 453l-171 -462h-27l-88 234q-7 18 -39 122h-2q-20 -71 -39 -120l-87 -236h-28l-170 462h73l78 -212q14 -39 33 -108h2q15 52 35 108l77 212h57l78 -212q9 -22 34 -108h2q25 84 34 108l78 212h70z" />
    <glyph glyph-name="x" unicode="x" horiz-adv-x="444" 
d="M408 0h-83l-69 112q-19 32 -32 57h-2q-9 -16 -34 -57l-69 -112h-83l143 230l-136 223h83l64 -107l30 -52h2q5 10 31 52l65 107h83l-136 -220z" />
    <glyph glyph-name="y" unicode="y" horiz-adv-x="468" 
d="M445 453l-168 -411q-48 -118 -103 -182t-127 -95l-50 50q67 28 114 78t85 140l-173 420h80l90 -220q25 -62 41 -112h2l45 111l90 221h74z" />
    <glyph glyph-name="z" unicode="z" horiz-adv-x="428" 
d="M392 0h-356v16l151 248q76 124 77 125l-1 2h-211v62h322v-16l-152 -248l-77 -125l1 -2h246v-62z" />
    <glyph glyph-name="braceleft" unicode="{" horiz-adv-x="304" 
d="M298 -159l-15 -60q-96 0 -141 67.5t-45 179.5q0 156 -91 212q91 58 91 213q0 111 45 178.5t141 67.5l15 -60q-125 0 -125 -189q0 -138 -78 -210q78 -70 78 -210q0 -189 125 -189z" />
    <glyph glyph-name="bar" unicode="|" horiz-adv-x="201" 
d="M134 -231h-67v943h67v-943z" />
    <glyph glyph-name="braceright" unicode="}" horiz-adv-x="304" 
d="M298 240q-91 -56 -91 -212q0 -112 -45 -179.5t-141 -67.5l-15 60q125 0 125 189q0 140 78 210q-78 72 -78 210q0 189 -125 189l15 60q96 0 141 -67.5t45 -178.5q0 -155 91 -213z" />
    <glyph glyph-name="asciitilde" unicode="~" horiz-adv-x="368" 
d="M326 320q-19 -34 -48.5 -66.5t-46.5 -32.5q-14 0 -47.5 19t-40.5 19q-5 0 -10.5 -3.5t-13 -11t-11.5 -12t-12 -14.5l-8 -11l-46 20q19 34 48.5 66.5t46.5 32.5q14 0 47 -19t40 -19q14 0 56 52z" />
    <glyph glyph-name="exclamdown" unicode="&#xa1;" horiz-adv-x="253" 
d="M178 593q0 -13 -21 -33.5t-34 -20.5t-34 20.5t-21 33.5t21 34t34 21t34 -21t21 -34zM171 0h-91l14 465l64 -16z" />
    <glyph glyph-name="cent" unicode="&#xa2;" horiz-adv-x="454" 
d="M301 0h-48v85q-91 8 -154 71t-63 160t63 160t154 71v91h48v-90q67 -6 117 -33l-15 -68q-55 35 -122 35q-71 0 -121 -47t-50 -120q0 -74 50 -121t122 -47q67 0 122 30l-8 -70q-39 -19 -95 -22v-85z" />
    <glyph glyph-name="sterling" unicode="&#xa3;" horiz-adv-x="433" 
d="M392 56l-15 -67q-63 25 -147 25q-83 0 -149 -25l-38 44q49 82 49 215v50h-79v47h79v109q0 93 50.5 142.5t137.5 49.5q53 0 87 -14l-16 -65q-33 14 -66 14q-116 0 -116 -131v-105h123l-11 -47h-112v-56q0 -124 -38 -178q37 14 108 14q87 0 153 -22z" />
    <glyph glyph-name="currency" unicode="&#xa4;" horiz-adv-x="492" 
d="M346 288l-9 -45h-165q14 -90 61 -138t106 -48q61 0 101 25l-8 -69q-32 -21 -99 -21q-89 0 -154.5 65.5t-82.5 184.5h-82v46h78q0 5 -0.5 15t-0.5 16t0.5 18t0.5 17h-78v46h83q18 116 83.5 181t152.5 65q68 0 118 -28l-14 -65q-41 28 -99 28q-60 0 -105.5 -47t-60.5 -134
h184l-9 -46h-180q-1 -11 -1 -36q0 -20 1 -30h179z" />
    <glyph glyph-name="yen" unicode="&#xa5;" horiz-adv-x="508" 
d="M485 638l-174 -338h124v-47h-141v-253h-80v253h-141v47h124l-174 338h85l102 -198q14 -28 47 -100h2q26 57 48 100l102 198h76z" />
    <glyph glyph-name="brokenbar" unicode="&#xa6;" horiz-adv-x="226" 
d="M147 300h-67v412h67v-412zM147 -231h-67v412h67v-412z" />
    <glyph glyph-name="section" unicode="&#xa7;" horiz-adv-x="483" 
d="M416 -60q0 -65 -49.5 -113.5t-134.5 -48.5q-82 0 -143 35l16 71q56 -37 125 -37q53 0 81.5 27.5t28.5 66.5q0 38 -23 61l-248 257l32 126q-34 46 -34 102q0 65 50 113.5t135 48.5q82 0 143 -35l-16 -71q-56 37 -126 37q-53 0 -81.5 -27.5t-28.5 -66.5q0 -38 23 -61
l249 -257l-32 -126q33 -44 33 -102zM362 136l-222 228l-18 -73l221 -228z" />
    <glyph glyph-name="dieresis" unicode="&#xa8;" 
d="M372 564q0 -11 -17.5 -29t-29.5 -18t-29.5 18t-17.5 29q0 12 17.5 30t29.5 18t29.5 -18t17.5 -30zM222 564q0 -11 -17.5 -29t-29.5 -18q-11 0 -29 18.5t-18 28.5q0 12 18 30t29 18q12 0 29.5 -18t17.5 -30z" />
    <glyph glyph-name="copyright" unicode="&#xa9;" horiz-adv-x="612" 
d="M570 250q0 -114 -76 -188.5t-188 -74.5t-188.5 74.5t-76.5 188.5q0 115 76.5 189t188.5 74t188 -74t76 -189zM523 250q0 95 -61 157.5t-156 62.5t-156.5 -62.5t-61.5 -157.5q0 -94 61.5 -157t156.5 -63q94 0 155.5 63t61.5 157zM404 372l-11 -53q-30 22 -72 22
q-39 0 -65 -25t-26 -64t26.5 -64t64.5 -25q40 0 73 19l-6 -54q-29 -17 -70 -17q-60 0 -103 39t-43 103q0 63 43 102.5t103 39.5q55 0 86 -23z" />
    <glyph glyph-name="ordfeminine" unicode="&#xaa;" horiz-adv-x="376" 
d="M360 315l-46 -44q-20 4 -36.5 17.5t-22.5 34.5q-25 -52 -99 -52q-53 0 -86.5 32t-33.5 78q0 51 36 80.5t86 34.5l87 9v25q0 28 -19 44.5t-56 16.5q-57 0 -100 -29l-14 56q48 32 117 32q63 0 101.5 -33t38.5 -93v-154q0 -47 47 -55zM245 412v37l-82 -8q-27 -3 -44 -20.5
t-17 -41.5q0 -23 16 -38t40 -15q32 0 59.5 23.5t27.5 62.5zM233 153q0 -11 -17.5 -29t-29.5 -18q-10 0 -28.5 18t-18.5 29q0 12 18 29.5t29 17.5q12 0 29.5 -17.5t17.5 -29.5z" />
    <glyph glyph-name="guillemotleft" unicode="&#xab;" horiz-adv-x="396" 
d="M354 110l-11 -27q-53 71 -118 119q-15 10 -15 24t15 24q65 48 118 119l11 -27q-28 -67 -59 -116q31 -49 59 -116zM167 110l-12 -27q-54 72 -117 119q-15 10 -15 24t15 24q63 47 117 119l12 -27q-28 -67 -59 -116q31 -49 59 -116z" />
    <glyph glyph-name="logicalnot" unicode="&#xac;" horiz-adv-x="504" 
d="M442 139h-68v105h-332v66h400v-171z" />
    <glyph glyph-name="registered" unicode="&#xae;" horiz-adv-x="466" 
d="M430 455q0 -85 -57 -140t-140 -55q-84 0 -140.5 55t-56.5 140t56.5 140t140.5 55q83 0 140 -55t57 -140zM390 455q0 70 -45 114.5t-112 44.5q-68 0 -113 -44.5t-45 -114.5t45 -114.5t113 -44.5t112.5 44.5t44.5 114.5zM334 358l-35 -23l-64 96h-31v-96h-42v239h73
q31 0 54 -20t23 -51q0 -42 -36 -61zM270 503q0 16 -11 25t-30 9h-25v-69h25q19 0 30 9.5t11 25.5z" />
    <glyph glyph-name="macron" unicode="&#xaf;" 
d="M339 526h-178v66h178v-66z" />
    <glyph glyph-name="macron" unicode="&#x2c9;" 
d="M339 526h-178v66h178v-66z" />
    <glyph glyph-name="degree" unicode="&#xb0;" horiz-adv-x="299" 
d="M258 543q0 -44 -32.5 -75.5t-76.5 -31.5t-76 31.5t-32 75.5t32 75.5t76 31.5t76.5 -31.5t32.5 -75.5zM201 543q0 24 -14.5 39.5t-37.5 15.5t-37.5 -15.5t-14.5 -39.5t14.5 -39.5t37.5 -15.5t37.5 15.5t14.5 39.5z" />
    <glyph glyph-name="plusminus" unicode="&#xb1;" horiz-adv-x="834" 
d="M812 36l-53 -53q-32 9 -58 38t-26 82v511q-42 33 -98 33q-116 0 -116 -131v-63h107v-62h-107v-391h-77v391h-215v-391h-77v391h-79v62h79v67q0 93 50.5 142.5t137.5 49.5q84 0 155 -49q51 49 137 49q103 0 180 -69v-530q0 -31 18 -51.5t42 -25.5zM398 605q-50 42 -113 42
q-116 0 -116 -131v-63h215v67q0 48 14 85z" />
    <glyph glyph-name="twosuperior" unicode="&#xb2;" horiz-adv-x="364" 
d="M310 248h-275v15q200 169 200 258q0 39 -24.5 60.5t-67.5 21.5q-49 0 -92 -25l-12 46q43 26 104 26q71 0 109 -35.5t38 -95.5q0 -98 -142 -224h162v-47z" />
    <glyph glyph-name="threesuperior" unicode="&#xb3;" horiz-adv-x="315" 
d="M272 367q0 -56 -40.5 -90.5t-109.5 -34.5q-38 0 -74 16l-7 53q38 -23 79 -23t69 22.5t28 61.5q0 32 -25.5 55t-60.5 23q-9 0 -18 -2l-11 43q38 7 61 24.5t23 39.5q0 21 -17 35.5t-43 14.5q-31 0 -69 -21l-12 45q40 21 82 21q49 0 80.5 -25.5t31.5 -65.5q0 -52 -54 -77
q38 -11 62.5 -41t24.5 -74z" />
    <glyph glyph-name="acute" unicode="&#xb4;" 
d="M402 650q0 -6 -13 -21q-60 -66 -141 -115l-47 20q79 62 135 140q11 16 25 16q10 0 25.5 -15.5t15.5 -24.5z" />
    <glyph glyph-name="mu" unicode="&#xb5;" horiz-adv-x="611" 
d="M572 152q0 -25 -17 -40t-38 -15v-97h-472v453h472v-246zM489 233v153h-153zM233 386h-160q0 -33 23 -56.5t56 -23.5t57 23.5t24 56.5zM489 27v81l-382 180q-19 9 -34 27v-288h416z" />
    <glyph glyph-name="mu" unicode="&#x3bc;" horiz-adv-x="611" 
d="M572 152q0 -25 -17 -40t-38 -15v-97h-472v453h472v-246zM489 233v153h-153zM233 386h-160q0 -33 23 -56.5t56 -23.5t57 23.5t24 56.5zM489 27v81l-382 180q-19 9 -34 27v-288h416z" />
    <glyph glyph-name="paragraph" unicode="&#xb6;" horiz-adv-x="391" 
d="M385 580h-68v-630q0 -68 -37.5 -118t-89.5 -63l-50 49q99 23 99 138v340h-10q-80 0 -136.5 46t-56.5 127q0 82 56.5 128t137.5 46h155v-63z" />
    <glyph glyph-name="periodcentered" unicode="&#xb7;" horiz-adv-x="192" 
d="M151 271q0 -13 -20.5 -34t-34.5 -21t-34.5 21t-20.5 34t21 33.5t34 20.5t34 -20.5t21 -33.5z" />
    <glyph glyph-name="periodcentered" unicode="&#x2219;" horiz-adv-x="192" 
d="M151 271q0 -13 -20.5 -34t-34.5 -21t-34.5 21t-20.5 34t21 33.5t34 20.5t34 -20.5t21 -33.5z" />
    <glyph glyph-name="cedilla" unicode="&#xb8;" 
d="M342 -128q0 -47 -32 -73.5t-75 -26.5q-42 0 -77 24l10 45q28 -22 67 -22q21 0 36.5 14t15.5 37q0 22 -16 36t-31 14q-39 0 -31 34l12 47h35l-9 -31q36 -1 65.5 -28.5t29.5 -69.5z" />
    <glyph glyph-name="onesuperior" unicode="&#xb9;" horiz-adv-x="262" 
d="M176 249h-56v345l-81 -7l12 52l125 11v-401z" />
    <glyph glyph-name="ordmasculine" unicode="&#xba;" horiz-adv-x="459" 
d="M423 460q0 -83 -55 -136t-138 -53t-138.5 53t-55.5 136t55.5 136.5t138.5 53.5t138 -53.5t55 -136.5zM355 460q0 58 -36.5 95.5t-88.5 37.5q-53 0 -89.5 -37.5t-36.5 -95.5t36.5 -95t89.5 -37q52 0 88.5 37.5t36.5 94.5zM276 153q0 -11 -17.5 -29t-29.5 -18q-11 0 -29 18
t-18 29q0 12 18 29.5t29 17.5q12 0 29.5 -17.5t17.5 -29.5z" />
    <glyph glyph-name="guillemotright" unicode="&#xbb;" horiz-adv-x="396" 
d="M373 226q0 -14 -15 -24q-69 -51 -118 -119l-11 27q26 66 59 116q-33 50 -59 116l11 27q49 -68 118 -119q15 -10 15 -24zM185 226q0 -14 -15 -24q-67 -50 -117 -119l-12 27q26 66 59 116q-33 50 -59 116l12 27q50 -69 117 -119q15 -10 15 -24z" />
    <glyph glyph-name="onequarter" unicode="&#xbc;" horiz-adv-x="731" 
d="M675 117h-53v-117h-55v117h-172l-13 46l192 234h48v-233h53v-47zM569 321l-2 1q-10 -17 -39 -54l-84 -104h123v105q0 34 2 52zM617 627l-520 -642l-31 26l520 642zM176 249h-56v345l-81 -7l12 52l125 11v-401z" />
    <glyph glyph-name="onehalf" unicode="&#xbd;" horiz-adv-x="791" 
d="M742 0h-275v15q200 169 200 258q0 39 -24.5 60.5t-67.5 21.5q-47 0 -92 -26l-12 47q43 26 104 26q71 0 109 -35.5t38 -95.5q0 -97 -143 -224h163v-47zM617 627l-520 -642l-31 26l520 642zM176 249h-56v345l-81 -7l12 52l125 11v-401z" />
    <glyph glyph-name="threequarters" unicode="&#xbe;" horiz-adv-x="766" 
d="M721 117h-54v-117h-53v116h-173l-12 45l192 236h46v-235h54v-45zM616 324q-26 -36 -41 -55l-86 -107h125v108q0 16 2 54zM664 628l-520 -643l-31 25l521 643zM272 367q0 -56 -40.5 -90.5t-109.5 -34.5q-38 0 -74 16l-7 53q38 -23 79 -23t69 22.5t28 61.5q0 32 -25.5 55
t-60.5 23q-9 0 -18 -2l-11 43q38 7 61 24.5t23 39.5q0 21 -17 35.5t-43 14.5q-31 0 -69 -21l-12 45q40 21 82 21q49 0 80.5 -25.5t31.5 -65.5q0 -52 -54 -77q38 -11 62.5 -41t24.5 -74z" />
    <glyph glyph-name="questiondown" unicode="&#xbf;" horiz-adv-x="366" 
d="M251 595q0 -13 -21 -33.5t-34 -20.5q-14 0 -34.5 20.5t-20.5 33.5q0 14 20.5 34.5t34.5 20.5t34.5 -21t20.5 -34zM337 25q-54 -35 -126 -35q-76 0 -124.5 42t-48.5 115q0 42 21.5 76.5t63.5 78.5q46 47 46 103q0 35 -6 62l70 -16q7 -31 7 -53q0 -87 -59 -146
q-32 -33 -46.5 -56.5t-14.5 -55.5q0 -31 25 -56t65 -25q57 0 111 35z" />
    <glyph glyph-name="Agrave" unicode="&#xc0;" horiz-adv-x="608" 
d="M587 0h-83l-71 172h-259l-70 -172h-81l267 647h30zM405 238l-70 176q-14 36 -30 88h-2q-8 -31 -31 -88l-70 -176h203zM386 736l-51 -22q-85 52 -139 113q-13 13 -13 22q0 10 16 25.5t26 15.5q14 0 26 -16q56 -78 135 -138z" />
    <glyph glyph-name="Aacute" unicode="&#xc1;" horiz-adv-x="608" 
d="M587 0h-83l-71 172h-259l-70 -172h-81l267 647h30zM405 238l-70 176q-14 36 -30 88h-2q-8 -31 -31 -88l-70 -176h203zM427 850q0 -6 -13 -21q-60 -66 -141 -115l-47 20q79 62 135 140q11 16 25 16q10 0 25.5 -15.5t15.5 -24.5z" />
    <glyph glyph-name="Acircumflex" unicode="&#xc2;" horiz-adv-x="608" 
d="M587 0h-83l-71 172h-259l-70 -172h-81l267 647h30zM405 238l-70 176q-14 36 -30 88h-2q-8 -31 -31 -88l-70 -176h203zM466 736l-51 -22q-72 44 -114 85q-49 -47 -110 -85l-47 20q81 63 135 139q12 17 26 17t26 -16q53 -76 135 -138z" />
    <glyph glyph-name="Atilde" unicode="&#xc3;" horiz-adv-x="608" 
d="M587 0h-83l-71 172h-259l-70 -172h-81l267 647h30zM405 238l-70 176q-14 36 -30 88h-2q-8 -31 -31 -88l-70 -176h203zM476 847q-23 -40 -56.5 -77.5t-52.5 -37.5q-17 0 -56 23t-47 23q-21 0 -65 -61l-52 23q24 41 57.5 77.5t52.5 36.5q17 0 56 -23t46 -23q20 0 66 62z
" />
    <glyph glyph-name="Adieresis" unicode="&#xc4;" horiz-adv-x="608" 
d="M587 0h-83l-71 172h-259l-70 -172h-81l267 647h30zM405 238l-70 176q-14 36 -30 88h-2q-8 -31 -31 -88l-70 -176h203zM425 764q0 -11 -17.5 -29t-29.5 -18t-29.5 18t-17.5 29q0 12 17.5 30t29.5 18t29.5 -18t17.5 -30zM275 764q0 -11 -17.5 -29t-29.5 -18
q-10 0 -28.5 18.5t-18.5 28.5q0 12 18 30t29 18q12 0 29.5 -18t17.5 -30z" />
    <glyph glyph-name="Aring" unicode="&#xc5;" horiz-adv-x="608" 
d="M587 0h-83l-71 172h-259l-70 -172h-81l267 647h30zM405 238l-70 176q-14 36 -30 88h-2q-8 -31 -31 -88l-70 -176h203zM412 811q0 -43 -31.5 -74.5t-75.5 -31.5t-75.5 31.5t-31.5 74.5t31.5 74.5t75.5 31.5t75.5 -31.5t31.5 -74.5zM358 811q0 25 -15 40.5t-38 15.5
t-38.5 -15.5t-15.5 -40.5q0 -24 15.5 -40t38.5 -16t38 16t15 40z" />
    <glyph glyph-name="AE" unicode="&#xc6;" horiz-adv-x="801" 
d="M795 0h-373v172h-216l-100 -172h-83l370 638h367v-71h-256v-211h212v-71h-212v-214h291v-71zM423 567l-2 1q-24 -57 -56 -113l-125 -217h182v219q0 22 0.5 56t0.5 54z" />
    <glyph glyph-name="Ccedilla" unicode="&#xc7;" horiz-adv-x="604" 
d="M563 602l-15 -70q-66 43 -163 43q-108 0 -186.5 -70t-78.5 -187q0 -118 78 -187.5t187 -69.5q100 0 167 39l-8 -73q-59 -32 -162 -32l-7 -25q36 -1 65.5 -28.5t29.5 -69.5q0 -47 -32 -73.5t-75 -26.5q-42 0 -77 24l10 45q28 -22 67 -22q21 0 36.5 14t15.5 37q0 22 -16 36
t-31 14q-39 0 -31 34l11 42q-125 10 -216 97.5t-91 225.5q0 75 29.5 138t77 103t107 62t121.5 22q112 0 187 -42z" />
    <glyph glyph-name="Egrave" unicode="&#xc8;" horiz-adv-x="446" 
d="M441 0h-374v638h338v-71h-256v-211h213v-71h-213v-214h292v-71zM321 736l-51 -22q-85 52 -139 113q-13 13 -13 22q0 10 16 25.5t26 15.5q14 0 26 -16q56 -78 135 -138z" />
    <glyph glyph-name="Eacute" unicode="&#xc9;" horiz-adv-x="446" 
d="M441 0h-374v638h338v-71h-256v-211h213v-71h-213v-214h292v-71zM376 850q0 -6 -13 -21q-60 -66 -141 -115l-47 20q79 62 135 140q11 16 25 16q10 0 25.5 -15.5t15.5 -24.5z" />
    <glyph glyph-name="Ecircumflex" unicode="&#xca;" horiz-adv-x="446" 
d="M441 0h-374v638h338v-71h-256v-211h213v-71h-213v-214h292v-71zM408 736l-51 -22q-72 44 -114 85q-49 -47 -110 -85l-47 20q81 63 135 139q12 17 26 17t26 -16q53 -76 135 -138z" />
    <glyph glyph-name="Edieresis" unicode="&#xcb;" horiz-adv-x="446" 
d="M441 0h-374v638h338v-71h-256v-211h213v-71h-213v-214h292v-71zM366 764q0 -11 -17.5 -29t-29.5 -18t-29.5 18t-17.5 29q0 12 17.5 30t29.5 18t29.5 -18t17.5 -30zM216 764q0 -11 -17.5 -29t-29.5 -18q-11 0 -29 18.5t-18 28.5q0 12 18 30t29 18q12 0 29.5 -18t17.5 -30z
" />
    <glyph glyph-name="Igrave" unicode="&#xcc;" horiz-adv-x="234" 
d="M159 0h-82v638h82v-638zM199 736l-51 -22q-85 52 -139 113q-13 13 -13 22q0 10 16 25.5t26 15.5q14 0 26 -16q56 -78 135 -138z" />
    <glyph glyph-name="Iacute" unicode="&#xcd;" horiz-adv-x="234" 
d="M159 0h-82v638h82v-638zM238 850q0 -6 -13 -21q-60 -66 -141 -115l-47 20q79 62 135 140q11 16 25 16q10 0 25.5 -15.5t15.5 -24.5z" />
    <glyph glyph-name="Icircumflex" unicode="&#xce;" horiz-adv-x="234" 
d="M159 0h-82v638h82v-638zM281 736l-51 -22q-72 44 -114 85q-49 -47 -110 -85l-47 20q81 63 135 139q12 17 26 17t26 -16q53 -76 135 -138z" />
    <glyph glyph-name="Idieresis" unicode="&#xcf;" horiz-adv-x="234" 
d="M159 0h-82v638h82v-638zM239 764q0 -11 -17.5 -29t-29.5 -18t-29.5 18t-17.5 29q0 12 17.5 30t29.5 18t29.5 -18t17.5 -30zM89 764q0 -11 -17.5 -29t-29.5 -18q-10 0 -28.5 18.5t-18.5 28.5q0 12 18 30t29 18q12 0 29.5 -18t17.5 -30z" />
    <glyph glyph-name="Eth" unicode="&#xd0;" horiz-adv-x="666" 
d="M625 319q0 -147 -101.5 -233t-247.5 -86h-182v290h-81v62h81v286h182q146 0 247.5 -86t101.5 -233zM541 318q0 120 -78 184.5t-201 64.5h-85v-215h132l-14 -62h-118v-221h85q123 0 201 64.5t78 184.5z" />
    <glyph glyph-name="Ntilde" unicode="&#xd1;" horiz-adv-x="696" 
d="M630 -12h-24l-306 341l-151 176l-2 -1q2 -58 2 -168v-336h-82v638h57l285 -319q92 -103 139 -162l2 1q-2 53 -2 159v321h82v-650zM516 847q-23 -40 -56.5 -77.5t-52.5 -37.5q-17 0 -56 23t-47 23q-21 0 -65 -61l-52 23q24 41 57.5 77.5t52.5 36.5q17 0 56 -23t46 -23
q20 0 66 62z" />
    <glyph glyph-name="Ograve" unicode="&#xd2;" horiz-adv-x="754" 
d="M713 320q0 -98 -48 -175t-124.5 -116.5t-163.5 -39.5t-163.5 39.5t-124.5 116.5t-48 175q0 146 100.5 238t235.5 92t235.5 -92t100.5 -238zM630 318q0 116 -76 187.5t-177 71.5q-102 0 -177.5 -71.5t-75.5 -187.5t75.5 -188t177.5 -72q101 0 177 72t76 188zM453 736
l-51 -22q-85 52 -139 113q-13 13 -13 22q0 10 16 25.5t26 15.5q14 0 26 -16q56 -78 135 -138z" />
    <glyph glyph-name="Oacute" unicode="&#xd3;" horiz-adv-x="754" 
d="M713 320q0 -98 -48 -175t-124.5 -116.5t-163.5 -39.5t-163.5 39.5t-124.5 116.5t-48 175q0 146 100.5 238t235.5 92t235.5 -92t100.5 -238zM630 318q0 116 -76 187.5t-177 71.5q-102 0 -177.5 -71.5t-75.5 -187.5t75.5 -188t177.5 -72q101 0 177 72t76 188zM496 850
q0 -6 -13 -21q-60 -66 -141 -115l-47 20q79 62 135 140q11 16 25 16q10 0 25.5 -15.5t15.5 -24.5z" />
    <glyph glyph-name="Ocircumflex" unicode="&#xd4;" horiz-adv-x="754" 
d="M713 320q0 -98 -48 -175t-124.5 -116.5t-163.5 -39.5t-163.5 39.5t-124.5 116.5t-48 175q0 146 100.5 238t235.5 92t235.5 -92t100.5 -238zM630 318q0 116 -76 187.5t-177 71.5q-102 0 -177.5 -71.5t-75.5 -187.5t75.5 -188t177.5 -72q101 0 177 72t76 188zM537 736
l-51 -22q-72 44 -114 85q-49 -47 -110 -85l-47 20q81 63 135 139q12 17 26 17t26 -16q53 -76 135 -138z" />
    <glyph glyph-name="Otilde" unicode="&#xd5;" horiz-adv-x="754" 
d="M713 320q0 -98 -48 -175t-124.5 -116.5t-163.5 -39.5t-163.5 39.5t-124.5 116.5t-48 175q0 146 100.5 238t235.5 92t235.5 -92t100.5 -238zM630 318q0 116 -76 187.5t-177 71.5q-102 0 -177.5 -71.5t-75.5 -187.5t75.5 -188t177.5 -72q101 0 177 72t76 188zM549 847
q-23 -40 -56.5 -77.5t-52.5 -37.5q-17 0 -56 23t-47 23q-21 0 -65 -61l-52 23q24 41 57.5 77.5t52.5 36.5q16 0 55 -23t47 -23q20 0 66 62z" />
    <glyph glyph-name="Odieresis" unicode="&#xd6;" horiz-adv-x="754" 
d="M713 320q0 -98 -48 -175t-124.5 -116.5t-163.5 -39.5t-163.5 39.5t-124.5 116.5t-48 175q0 146 100.5 238t235.5 92t235.5 -92t100.5 -238zM630 318q0 116 -76 187.5t-177 71.5q-102 0 -177.5 -71.5t-75.5 -187.5t75.5 -188t177.5 -72q101 0 177 72t76 188zM498 764
q0 -11 -17.5 -29t-29.5 -18t-29.5 18t-17.5 29q0 12 17.5 30t29.5 18t29.5 -18t17.5 -30zM348 764q0 -11 -17.5 -29t-29.5 -18q-11 0 -29 18.5t-18 28.5q0 12 18 30t29 18q12 0 29.5 -18t17.5 -30z" />
    <glyph glyph-name="multiply" unicode="&#xd7;" horiz-adv-x="472" 
d="M397 150l-37 -37l-122 122l-123 -123l-37 37l123 123l-122 122l37 37l122 -122l122 121l36 -36l-121 -122z" />
    <glyph glyph-name="Oslash" unicode="&#xd8;" horiz-adv-x="754" 
d="M713 320q0 -98 -48 -175t-124.5 -116.5t-163.5 -39.5q-105 0 -189 55l-60 -74l-38 32l58 73q-107 95 -107 245q0 146 100.5 238t235.5 92q103 0 190 -56l59 73l39 -32l-58 -72q106 -96 106 -243zM630 318q0 111 -73 184l-323 -400q66 -44 143 -44q101 0 177 72t76 188z
M519 534q-65 43 -142 43q-102 0 -177.5 -71.5t-75.5 -187.5q0 -110 72 -184z" />
    <glyph glyph-name="Ugrave" unicode="&#xd9;" horiz-adv-x="642" 
d="M576 223q0 -108 -70.5 -171t-183.5 -63t-184 63t-71 171v415h82v-407q0 -79 45 -124t128 -45q84 0 129 45t45 124v407h80v-415zM403 736l-51 -22q-85 52 -139 113q-13 13 -13 22q0 10 16 25.5t26 15.5q14 0 26 -16q56 -78 135 -138z" />
    <glyph glyph-name="Uacute" unicode="&#xda;" horiz-adv-x="642" 
d="M576 223q0 -108 -70.5 -171t-183.5 -63t-184 63t-71 171v415h82v-407q0 -79 45 -124t128 -45q84 0 129 45t45 124v407h80v-415zM444 850q0 -6 -13 -21q-60 -66 -141 -115l-47 20q79 62 135 140q11 16 25 16q10 0 25.5 -15.5t15.5 -24.5z" />
    <glyph glyph-name="Ucircumflex" unicode="&#xdb;" horiz-adv-x="642" 
d="M576 223q0 -108 -70.5 -171t-183.5 -63t-184 63t-71 171v415h82v-407q0 -79 45 -124t128 -45q84 0 129 45t45 124v407h80v-415zM485 736l-51 -22q-72 44 -114 85q-49 -47 -110 -85l-47 20q81 63 135 139q12 17 26 17t26 -16q53 -76 135 -138z" />
    <glyph glyph-name="Udieresis" unicode="&#xdc;" horiz-adv-x="642" 
d="M576 223q0 -108 -70.5 -171t-183.5 -63t-184 63t-71 171v415h82v-407q0 -79 45 -124t128 -45q84 0 129 45t45 124v407h80v-415zM449 764q0 -11 -17.5 -29t-29.5 -18t-29.5 18t-17.5 29q0 12 17.5 30t29.5 18t29.5 -18t17.5 -30zM299 764q0 -11 -17.5 -29t-29.5 -18
q-10 0 -28.5 18.5t-18.5 28.5q0 12 18 30t29 18q12 0 29.5 -18t17.5 -30z" />
    <glyph glyph-name="Yacute" unicode="&#xdd;" horiz-adv-x="613" 
d="M592 638l-245 -344v-294h-80v294l-244 344h90l133 -187l63 -94h2q28 45 63 94l133 187h85zM441 850q0 -6 -13 -21q-60 -66 -141 -115l-47 20q79 62 135 140q11 16 25 16q10 0 25.5 -15.5t15.5 -24.5z" />
    <glyph glyph-name="Thorn" unicode="&#xde;" horiz-adv-x="478" 
d="M442 388q0 -81 -56.5 -128.5t-131.5 -47.5h-106v-212h-81v639h81v-75h104q76 0 133 -47t57 -129zM358 388q0 50 -34.5 78t-85.5 28h-90v-212h92q49 0 83.5 28t34.5 78z" />
    <glyph glyph-name="germandbls" unicode="&#xdf;" horiz-adv-x="584" 
d="M548 121q0 -58 -42.5 -95t-117.5 -37q-79 0 -130 36v75q59 -45 131 -45q36 0 59 17.5t23 45.5q0 49 -75 76q-68 24 -102 58.5t-34 86.5q0 55 41.5 90.5t104.5 37.5q6 24 6 44q0 54 -36.5 95t-95.5 41q-52 0 -81.5 -33.5t-29.5 -97.5v-516h-77v391h-79v62h79v67
q0 93 50.5 142.5t137.5 49.5q94 0 150.5 -57t56.5 -155q0 -51 -13 -93q-139 0 -139 -66q0 -25 17.5 -41t55.5 -29q71 -25 105.5 -60t34.5 -90z" />
    <glyph glyph-name="agrave" unicode="&#xe0;" horiz-adv-x="439" 
d="M427 39l-49 -50q-26 6 -47 26t-25 50q-14 -38 -47.5 -57t-77.5 -19q-64 0 -104.5 40t-40.5 97q0 62 43 99t105 43l113 11v36q0 37 -25 59.5t-73 22.5q-70 0 -122 -35l-16 64q58 38 142 38q76 0 123.5 -41.5t47.5 -116.5v-195q0 -31 15 -49.5t38 -22.5zM297 164v51l-97 -9
q-43 -4 -66.5 -26.5t-23.5 -54.5q0 -30 21.5 -50t56.5 -20q44 0 76.5 30.5t32.5 78.5zM268 547l-43 -18q-73 45 -119 96q-10 12 -10 18q0 8 13.5 21.5t21.5 13.5q14 0 22 -14q45 -62 115 -117z" />
    <glyph glyph-name="aacute" unicode="&#xe1;" horiz-adv-x="439" 
d="M427 39l-49 -50q-26 6 -47 26t-25 50q-14 -38 -47.5 -57t-77.5 -19q-64 0 -104.5 40t-40.5 97q0 62 43 99t105 43l113 11v36q0 37 -25 59.5t-73 22.5q-70 0 -122 -35l-16 64q58 38 142 38q76 0 123.5 -41.5t47.5 -116.5v-195q0 -31 15 -49.5t38 -22.5zM297 164v51l-97 -9
q-43 -4 -66.5 -26.5t-23.5 -54.5q0 -30 21.5 -50t56.5 -20q44 0 76.5 30.5t32.5 78.5zM315 644q0 -6 -11 -17q-51 -56 -120 -98l-40 17q70 54 115 119q10 13 22 13q8 0 21 -13t13 -21z" />
    <glyph glyph-name="acircumflex" unicode="&#xe2;" horiz-adv-x="439" 
d="M427 39l-49 -50q-26 6 -47 26t-25 50q-14 -38 -47.5 -57t-77.5 -19q-64 0 -104.5 40t-40.5 97q0 62 43 99t105 43l113 11v36q0 37 -25 59.5t-73 22.5q-70 0 -122 -35l-16 64q58 38 142 38q76 0 123.5 -41.5t47.5 -116.5v-195q0 -31 15 -49.5t38 -22.5zM297 164v51l-97 -9
q-43 -4 -66.5 -26.5t-23.5 -54.5q0 -30 21.5 -50t56.5 -20q44 0 76.5 30.5t32.5 78.5zM346 548l-43 -19q-62 38 -97 72q-40 -39 -94 -72l-40 17q69 52 115 118q9 14 22 14q14 0 22 -14q43 -61 115 -116z" />
    <glyph glyph-name="atilde" unicode="&#xe3;" horiz-adv-x="439" 
d="M427 39l-49 -50q-26 6 -47 26t-25 50q-14 -38 -47.5 -57t-77.5 -19q-64 0 -104.5 40t-40.5 97q0 62 43 99t105 43l113 11v36q0 37 -25 59.5t-73 22.5q-70 0 -122 -35l-16 64q58 38 142 38q76 0 123.5 -41.5t47.5 -116.5v-195q0 -31 15 -49.5t38 -22.5zM297 164v51l-97 -9
q-43 -4 -66.5 -26.5t-23.5 -54.5q0 -30 21.5 -50t56.5 -20q44 0 76.5 30.5t32.5 78.5zM355 642q-20 -34 -48 -65.5t-45 -31.5q-14 0 -47 19t-40 19q-17 0 -56 -52l-43 20q20 34 48 65.5t44 31.5q14 0 47.5 -19.5t39.5 -19.5q14 0 56 52z" />
    <glyph glyph-name="adieresis" unicode="&#xe4;" horiz-adv-x="439" 
d="M427 39l-49 -50q-26 6 -47 26t-25 50q-14 -38 -47.5 -57t-77.5 -19q-64 0 -104.5 40t-40.5 97q0 62 43 99t105 43l113 11v36q0 37 -25 59.5t-73 22.5q-70 0 -122 -35l-16 64q58 38 142 38q76 0 123.5 -41.5t47.5 -116.5v-195q0 -31 15 -49.5t38 -22.5zM297 164v51l-97 -9
q-43 -4 -66.5 -26.5t-23.5 -54.5q0 -30 21.5 -50t56.5 -20q44 0 76.5 30.5t32.5 78.5zM309 571q0 -9 -15 -24.5t-25 -15.5t-24.5 15.5t-14.5 24.5q0 10 14.5 25.5t24.5 15.5t25 -15t15 -26zM182 571q0 -9 -15 -24.5t-25 -15.5q-9 0 -24.5 15.5t-15.5 24.5q0 10 15.5 25.5
t24.5 15.5q10 0 25 -15t15 -26z" />
    <glyph glyph-name="aring" unicode="&#xe5;" horiz-adv-x="439" 
d="M427 39l-49 -50q-26 6 -47 26t-25 50q-14 -38 -47.5 -57t-77.5 -19q-64 0 -104.5 40t-40.5 97q0 62 43 99t105 43l113 11v36q0 37 -25 59.5t-73 22.5q-70 0 -122 -35l-16 64q58 38 142 38q76 0 123.5 -41.5t47.5 -116.5v-195q0 -31 15 -49.5t38 -22.5zM297 164v51l-97 -9
q-43 -4 -66.5 -26.5t-23.5 -54.5q0 -30 21.5 -50t56.5 -20q44 0 76.5 30.5t32.5 78.5zM293 612q0 -37 -27 -63.5t-64 -26.5t-64 26.5t-27 63.5t27 63t64 26t64 -26t27 -63zM247 612q0 20 -12.5 33.5t-32.5 13.5q-19 0 -32 -13.5t-13 -33.5q0 -21 12.5 -34.5t32.5 -13.5
t32.5 13.5t12.5 34.5z" />
    <glyph glyph-name="ae" unicode="&#xe6;" horiz-adv-x="731" 
d="M695 290q0 -20 -3 -33l-43 -43h-294q-1 -61 47 -110.5t126 -49.5t132 39l-8 -73q-55 -31 -133 -31q-57 0 -107 24.5t-77 66.5q-21 -46 -63 -68.5t-90 -22.5q-65 0 -105.5 39.5t-40.5 96.5q0 62 42.5 98.5t105.5 43.5l100 10q5 27 14 47q-3 35 -28.5 55.5t-71.5 20.5
q-71 0 -121 -35l-16 61q58 38 141 38q49 0 87.5 -18.5t56.5 -54.5q61 73 154 73q89 0 142.5 -52.5t52.5 -121.5zM620 288q0 43 -32 77.5t-84 34.5q-51 0 -93 -37t-51 -89h259q1 4 1 14zM295 137q-13 33 -15 78l-81 -7q-44 -4 -68 -27t-24 -57q0 -30 22.5 -51t57.5 -21
q38 0 69 23t39 62z" />
    <glyph glyph-name="ccedilla" unicode="&#xe7;" horiz-adv-x="454" 
d="M418 425l-15 -68q-57 36 -122 36q-72 0 -121.5 -47t-49.5 -121q0 -73 50.5 -120.5t121.5 -47.5q65 0 122 30l-8 -69q-45 -22 -110 -24l-6 -20q30 -1 55.5 -24.5t25.5 -58.5q0 -39 -28 -62t-63 -23t-66 21l9 38q23 -19 57 -19q17 0 30.5 12t13.5 31q0 20 -13 31.5
t-27 11.5q-17 0 -23.5 8.5t-3.5 20.5l9 34q-92 7 -156 70t-64 161q0 104 70.5 168.5t169.5 64.5q81 0 142 -34z" />
    <glyph glyph-name="egrave" unicode="&#xe8;" horiz-adv-x="488" 
d="M452 290q0 -20 -3 -33l-42 -43h-295q0 -61 47.5 -110.5t126.5 -49.5q76 0 132 39l-9 -73q-55 -31 -132 -31q-100 0 -170.5 67t-70.5 170q0 106 67.5 172t153.5 66q89 0 142 -52.5t53 -121.5zM377 288q0 43 -32 77.5t-84 34.5q-51 0 -93 -37t-51 -89h259q1 4 1 14z
M325 547l-44 -19q-75 48 -118 97q-11 11 -11 18q0 8 13.5 21.5t22.5 13.5q12 0 22 -14q45 -64 115 -117z" />
    <glyph glyph-name="eacute" unicode="&#xe9;" horiz-adv-x="488" 
d="M452 290q0 -20 -3 -33l-42 -43h-295q0 -61 47.5 -110.5t126.5 -49.5q76 0 132 39l-9 -73q-55 -31 -132 -31q-100 0 -170.5 67t-70.5 170q0 106 67.5 172t153.5 66q89 0 142 -52.5t53 -121.5zM377 288q0 43 -32 77.5t-84 34.5q-51 0 -93 -37t-51 -89h259q1 4 1 14z
M368 644q0 -6 -11 -17q-46 -52 -119 -99l-40 18q70 55 114 119q10 13 22 13q8 0 21 -13t13 -21z" />
    <glyph glyph-name="ecircumflex" unicode="&#xea;" horiz-adv-x="488" 
d="M452 290q0 -20 -3 -33l-42 -43h-295q0 -61 47.5 -110.5t126.5 -49.5q76 0 132 39l-9 -73q-55 -31 -132 -31q-100 0 -170.5 67t-70.5 170q0 106 67.5 172t153.5 66q89 0 142 -52.5t53 -121.5zM377 288q0 43 -32 77.5t-84 34.5q-51 0 -93 -37t-51 -89h259q1 4 1 14z
M396 548l-43 -19q-62 38 -97 72q-39 -38 -93 -72l-40 17q66 51 114 118q9 14 22 14q14 0 23 -14q45 -63 114 -116z" />
    <glyph glyph-name="edieresis" unicode="&#xeb;" horiz-adv-x="488" 
d="M452 290q0 -20 -3 -33l-42 -43h-295q0 -61 47.5 -110.5t126.5 -49.5q76 0 132 39l-9 -73q-55 -31 -132 -31q-100 0 -170.5 67t-70.5 170q0 106 67.5 172t153.5 66q89 0 142 -52.5t53 -121.5zM377 288q0 43 -32 77.5t-84 34.5q-51 0 -93 -37t-51 -89h259q1 4 1 14z
M358 571q0 -9 -14.5 -24.5t-24.5 -15.5t-25 15.5t-15 24.5q0 11 15 26t25 15t24.5 -15.5t14.5 -25.5zM231 571q0 -9 -15 -24.5t-25 -15.5q-9 0 -24.5 15.5t-15.5 24.5q0 10 15.5 25.5t24.5 15.5q10 0 25 -15t15 -26z" />
    <glyph glyph-name="igrave" unicode="&#xec;" horiz-adv-x="211" 
d="M145 0h-78v453h78v-453zM171 547l-43 -19q-75 48 -118 97q-11 11 -11 18q0 8 13.5 21.5t21.5 13.5q12 0 23 -14q46 -65 114 -117z" />
    <glyph glyph-name="iacute" unicode="&#xed;" horiz-adv-x="211" 
d="M145 0h-78v453h78v-453zM214 644q0 -6 -11 -17q-46 -52 -119 -99l-40 18q70 55 114 119q10 13 22 13q8 0 21 -13t13 -21z" />
    <glyph glyph-name="icircumflex" unicode="&#xee;" horiz-adv-x="211" 
d="M145 0h-78v453h78v-453zM245 548l-43 -19q-62 38 -97 72q-44 -41 -94 -72l-40 17q69 52 115 118q9 14 22 14t22 -14q43 -61 115 -116z" />
    <glyph glyph-name="idieresis" unicode="&#xef;" horiz-adv-x="211" 
d="M145 0h-78v453h78v-453zM211 571q0 -9 -15 -24.5t-25 -15.5t-25 15.5t-15 24.5q0 11 15 26t25 15t25 -15.5t15 -25.5zM83 571q0 -9 -15 -24.5t-25 -15.5q-9 0 -24.5 15.5t-15.5 24.5q0 10 15.5 25.5t24.5 15.5q10 0 25 -15t15 -26z" />
    <glyph glyph-name="eth" unicode="&#xf0;" horiz-adv-x="497" 
d="M456 209q0 -103 -60.5 -161.5t-150.5 -58.5t-149.5 58.5t-59.5 147.5q0 72 43 127t110 77q53 17 113 26l-54 125l-87 -35l-23 58l85 35l-45 104h81l33 -77l78 32l23 -58l-76 -31l116 -272q23 -54 23 -97zM379 208q0 41 -52 153q-57 -6 -102 -21q-112 -38 -112 -145
q0 -60 38 -99t93 -39q57 0 96 41t39 110z" />
    <glyph glyph-name="ntilde" unicode="&#xf1;" horiz-adv-x="501" 
d="M445 0h-77v295q0 44 -29.5 73t-85.5 29q-55 0 -87 -29.5t-32 -72.5v-295h-77v453h71v-63h1q31 74 143 74q76 0 124.5 -44t48.5 -118v-302zM395 642q-20 -34 -48 -65.5t-45 -31.5q-14 0 -47 19t-40 19q-17 0 -56 -52l-43 20q20 34 48 65.5t45 31.5q14 0 47 -19.5t40 -19.5
q14 0 56 52z" />
    <glyph glyph-name="ograve" unicode="&#xf2;" horiz-adv-x="551" 
d="M515 226q0 -103 -68.5 -170t-170.5 -67t-171 67t-69 170q0 104 69 171t171 67t170.5 -67t68.5 -171zM437 224q0 74 -47 122t-114 48q-68 0 -115 -48t-47 -122t47 -121t115 -47q67 0 114 47t47 121zM342 547l-43 -19q-75 48 -118 97q-11 11 -11 18q0 8 13.5 21.5
t21.5 13.5q13 0 23 -14q46 -65 114 -117z" />
    <glyph glyph-name="oacute" unicode="&#xf3;" horiz-adv-x="551" 
d="M515 226q0 -103 -68.5 -170t-170.5 -67t-171 67t-69 170q0 104 69 171t171 67t170.5 -67t68.5 -171zM437 224q0 74 -47 122t-114 48q-68 0 -115 -48t-47 -122t47 -121t115 -47q67 0 114 47t47 121zM380 644q0 -6 -11 -17q-46 -53 -120 -99l-40 18q70 54 115 119
q10 13 22 13q8 0 21 -13t13 -21z" />
    <glyph glyph-name="ocircumflex" unicode="&#xf4;" horiz-adv-x="551" 
d="M515 226q0 -103 -68.5 -170t-170.5 -67t-171 67t-69 170q0 104 69 171t171 67t170.5 -67t68.5 -171zM437 224q0 74 -47 122t-114 48q-68 0 -115 -48t-47 -122t47 -121t115 -47q67 0 114 47t47 121zM414 548l-43 -19q-62 38 -97 72q-44 -41 -94 -72l-40 17q69 52 115 118
q9 14 22 14t22 -14q43 -61 115 -116z" />
    <glyph glyph-name="otilde" unicode="&#xf5;" horiz-adv-x="551" 
d="M515 226q0 -103 -68.5 -170t-170.5 -67t-171 67t-69 170q0 104 69 171t171 67t170.5 -67t68.5 -171zM437 224q0 74 -47 122t-114 48q-68 0 -115 -48t-47 -122t47 -121t115 -47q67 0 114 47t47 121zM421 642q-20 -34 -48 -65.5t-45 -31.5q-14 0 -47 19t-40 19
q-17 0 -56 -52l-43 20q20 34 48 65.5t45 31.5q14 0 47 -19.5t40 -19.5q14 0 56 52z" />
    <glyph glyph-name="odieresis" unicode="&#xf6;" horiz-adv-x="551" 
d="M515 226q0 -103 -68.5 -170t-170.5 -67t-171 67t-69 170q0 104 69 171t171 67t170.5 -67t68.5 -171zM437 224q0 74 -47 122t-114 48q-68 0 -115 -48t-47 -122t47 -121t115 -47q67 0 114 47t47 121zM381 571q0 -9 -15 -24.5t-25 -15.5t-25 15.5t-15 24.5q0 10 15 25.5
t25 15.5t25 -15t15 -26zM254 571q0 -9 -15 -24.5t-25 -15.5t-25 15.5t-15 24.5q0 10 15 25.5t25 15.5t25 -15.5t15 -25.5z" />
    <glyph glyph-name="divide" unicode="&#xf7;" horiz-adv-x="458" 
d="M277 401q0 -12 -18 -30t-30 -18t-30 18t-18 30q0 11 18 29t30 18t30 -18t18 -29zM416 244h-374v66h374v-66zM277 154q0 -12 -18 -30t-30 -18t-30 18t-18 30q0 11 18 29t30 18t30 -18t18 -29z" />
    <glyph glyph-name="oslash" unicode="&#xf8;" horiz-adv-x="551" 
d="M515 226q0 -103 -68.5 -170t-170.5 -67q-71 0 -132 37l-45 -56l-36 31l43 54q-70 67 -70 171t69 171t171 67q72 0 130 -36l43 54l36 -30l-41 -52q71 -68 71 -174zM437 224q0 70 -41 116l-208 -259q39 -25 88 -25q67 0 114 47t47 121zM359 371q-38 23 -83 23
q-68 0 -115 -48t-47 -122q0 -65 38 -111z" />
    <glyph glyph-name="ugrave" unicode="&#xf9;" horiz-adv-x="501" 
d="M445 0h-71v63h-1q-31 -74 -143 -74q-76 0 -124.5 44t-48.5 118v302h77v-295q0 -44 29.5 -73t85.5 -29q55 0 87 29.5t32 72.5v295h77v-453zM312 547l-43 -19q-75 48 -118 97q-11 11 -11 18q0 8 13.5 21.5t22.5 13.5q12 0 22 -14q46 -65 114 -117z" />
    <glyph glyph-name="uacute" unicode="&#xfa;" horiz-adv-x="501" 
d="M445 0h-71v63h-1q-31 -74 -143 -74q-76 0 -124.5 44t-48.5 118v302h77v-295q0 -44 29.5 -73t85.5 -29q55 0 87 29.5t32 72.5v295h77v-453zM362 644q0 -6 -11 -17q-46 -52 -119 -99l-40 18q70 55 114 119q10 13 22 13q8 0 21 -13t13 -21z" />
    <glyph glyph-name="ucircumflex" unicode="&#xfb;" horiz-adv-x="501" 
d="M445 0h-71v63h-1q-31 -74 -143 -74q-76 0 -124.5 44t-48.5 118v302h77v-295q0 -44 29.5 -73t85.5 -29q55 0 87 29.5t32 72.5v295h77v-453zM389 548l-44 -19q-62 40 -97 72q-39 -38 -93 -72l-40 17q69 52 115 118q9 14 22 14t22 -14q43 -61 115 -116z" />
    <glyph glyph-name="udieresis" unicode="&#xfc;" horiz-adv-x="501" 
d="M445 0h-71v63h-1q-31 -74 -143 -74q-76 0 -124.5 44t-48.5 118v302h77v-295q0 -44 29.5 -73t85.5 -29q55 0 87 29.5t32 72.5v295h77v-453zM357 571q0 -9 -15 -24.5t-25 -15.5t-25 15.5t-15 24.5q0 11 15 26t25 15t25 -15.5t15 -25.5zM229 571q0 -9 -15 -24.5t-25 -15.5
q-9 0 -24.5 15.5t-15.5 24.5q0 10 15.5 25.5t24.5 15.5q10 0 25 -15t15 -26z" />
    <glyph glyph-name="yacute" unicode="&#xfd;" horiz-adv-x="468" 
d="M445 453l-168 -411q-48 -118 -103 -182t-127 -95l-50 50q67 28 114 78t85 140l-173 420h80l90 -220q25 -62 41 -112h2l45 111l90 221h74zM353 644q0 -7 -10 -17q-47 -53 -120 -99l-40 18q67 51 115 119q8 13 21 13q8 0 21 -13t13 -21z" />
    <glyph glyph-name="thorn" unicode="&#xfe;" horiz-adv-x="532" 
d="M496 227q0 -104 -65.5 -171t-165.5 -67q-36 0 -73 12.5t-53 28.5v-261h-77v943h77v-301q47 53 135 53q87 0 154.5 -64.5t67.5 -172.5zM418 225q0 75 -46 122t-114 47q-78 0 -119 -57v-234q15 -18 46.5 -32.5t72.5 -14.5q68 0 114 47.5t46 121.5z" />
    <glyph glyph-name="ydieresis" unicode="&#xff;" horiz-adv-x="468" 
d="M445 453l-168 -411q-48 -118 -103 -182t-127 -95l-50 50q67 28 114 78t85 140l-173 420h80l90 -220q25 -62 41 -112h2l45 111l90 221h74zM347 568q0 -9 -15 -24.5t-25 -15.5t-25 15.5t-15 24.5q0 11 15 26t25 15t25 -15t15 -26zM219 568q0 -9 -15 -24.5t-25 -15.5
q-9 0 -24 15.5t-15 24.5q0 10 15 25.5t24 15.5q10 0 25 -15t15 -26z" />
    <glyph glyph-name="dotlessi" unicode="&#x131;" horiz-adv-x="213" 
d="M145 0h-78v453h78v-453z" />
    <glyph glyph-name="Lslash" unicode="&#x141;" horiz-adv-x="441" 
d="M435 0h-371v248l-52 -30v72l52 30v318h82v-271l159 92v-73l-159 -92v-223h289v-71z" />
    <glyph glyph-name="lslash" unicode="&#x142;" horiz-adv-x="225" 
d="M209 386l-69 -40v-233q0 -31 17.5 -51.5t41.5 -25.5l-52 -53q-32 9 -58 38t-26 82v198l-52 -29v71l52 31v338h77v-293l69 40v-73z" />
    <glyph glyph-name="OE" unicode="&#x152;" horiz-adv-x="830" 
d="M824 0h-364q-36 -6 -83 -6q-63 0 -122.5 22.5t-107.5 62.5t-77 102.5t-29 137.5t29.5 138t77 103t107 62t121.5 22q45 0 79 -6h334v-67h-259v-216h214v-68h-214v-219h294v-68zM451 66l1 502q-38 7 -67 7q-108 0 -186.5 -70t-78.5 -187q0 -118 78 -187.5t187 -69.5
q33 0 66 5z" />
    <glyph glyph-name="oe" unicode="&#x153;" horiz-adv-x="892" 
d="M855 290q0 -24 -2 -33l-43 -43h-294q-1 -61 46.5 -110.5t126.5 -49.5q76 0 132 39l-9 -73q-53 -31 -132 -31q-67 0 -124 33t-78 88q-26 -58 -80.5 -89.5t-121.5 -31.5q-102 0 -171 67t-69 170t69 170.5t171 67.5q67 0 124 -32.5t77 -87.5q17 53 72 86.5t112 33.5
q88 0 141 -52.5t53 -121.5zM781 288q0 43 -32 77.5t-84 34.5q-51 0 -93.5 -37t-50.5 -89h259q1 4 1 14zM440 224q0 75 -47.5 124t-116.5 49t-117 -48.5t-48 -123.5t48 -123.5t117 -48.5t116.5 48t47.5 123z" />
    <glyph glyph-name="Scaron" unicode="&#x160;" horiz-adv-x="471" 
d="M430 177q0 -83 -56 -132.5t-153 -49.5q-100 0 -165 46l-10 83q78 -61 178 -61q57 0 92.5 29.5t35.5 77.5q0 47 -28.5 76.5t-91.5 51.5q-85 29 -126.5 72.5t-41.5 109.5q0 67 50 115.5t141 48.5q82 0 135 -36l-16 -66q-52 37 -121 37q-52 0 -83 -27.5t-31 -65.5t26.5 -64
t82.5 -46q91 -33 136.5 -77.5t45.5 -121.5zM382 860q-81 -61 -132 -142q-4 -8 -12 -8q-10 0 -13 8q-47 77 -132 142l53 23q60 -43 91 -80q31 36 91 80z" />
    <glyph glyph-name="scaron" unicode="&#x161;" horiz-adv-x="368" 
d="M332 123q0 -57 -42 -93t-115 -36q-75 0 -125 35l-10 80q59 -52 136 -52q36 0 59 17.5t23 45.5q0 49 -75 76q-67 24 -100 56.5t-33 83.5q0 54 40 88.5t103 34.5q66 0 113 -29l-16 -63q-40 30 -98 30q-31 0 -50.5 -16t-19.5 -42t17 -40.5t55 -28.5q69 -25 103.5 -59
t34.5 -88zM303 654q-70 -54 -112 -121q-4 -6 -10 -6q-7 0 -12 6q-40 66 -111 121l45 19q51 -36 77 -68q28 33 78 68z" />
    <glyph glyph-name="Ydieresis" unicode="&#x178;" horiz-adv-x="613" 
d="M592 638l-245 -344v-294h-80v294l-244 344h90l133 -187l63 -94h2q28 45 63 94l133 187h85zM422 764q0 -11 -17.5 -29t-29.5 -18t-29.5 18t-17.5 29q0 12 17.5 30t29.5 18t29.5 -18t17.5 -30zM272 764q0 -11 -17.5 -29t-29.5 -18q-11 0 -29 18.5t-18 28.5q0 12 18 30
t29 18q12 0 29.5 -18t17.5 -30z" />
    <glyph glyph-name="Zcaron" unicode="&#x17d;" horiz-adv-x="525" 
d="M486 0h-445v20l211 365l109 181l-1 1h-299v71h413v-20l-213 -366l-108 -180l1 -1h332v-71zM410 861q-81 -61 -132 -142q-4 -8 -12 -8q-10 0 -13 8q-47 77 -132 142l53 23q60 -43 91 -80q31 36 91 80z" />
    <glyph glyph-name="zcaron" unicode="&#x17e;" horiz-adv-x="427" 
d="M392 0h-356v16l151 248q76 124 77 125l-1 2h-211v62h322v-16l-152 -248l-77 -125l1 -2h246v-62zM335 654q-71 -55 -111 -121q-4 -6 -11 -6q-8 0 -11 6q-39 65 -112 121l45 19q53 -37 78 -68q27 32 77 68z" />
    <glyph glyph-name="florin" unicode="&#x192;" horiz-adv-x="426" 
d="M436 646l-14 -64q-18 3 -38 3q-117 0 -139 -131l-27 -154h115l-11 -47h-112l-55 -303q-13 -71 -57.5 -119.5t-99.5 -61.5l-50 49q50 12 86 47t46 91l53 297h-80v47h87l28 158q16 93 75.5 142.5t147.5 49.5q17 0 45 -4z" />
    <glyph glyph-name="circumflex" unicode="&#x2c6;" 
d="M411 536l-51 -22q-72 44 -114 85q-49 -47 -110 -85l-47 20q81 63 135 139q12 17 26 17t26 -16q53 -76 135 -138z" />
    <glyph glyph-name="caron" unicode="&#x2c7;" 
d="M395 661q-81 -61 -132 -142q-4 -8 -12 -8q-10 0 -13 8q-47 77 -132 142l53 23q60 -43 91 -80q31 36 91 80z" />
    <glyph glyph-name="breve" unicode="&#x2d8;" 
d="M365 558q-57 -43 -114 -43q-59 0 -116 43l44 45q31 -21 72 -21q39 0 70 21z" />
    <glyph glyph-name="dotaccent" unicode="&#x2d9;" 
d="M296 564q0 -11 -17 -28.5t-29 -17.5q-10 0 -28 18t-18 28q0 11 17.5 29t28.5 18t28.5 -17.5t17.5 -29.5z" />
    <glyph glyph-name="ring" unicode="&#x2da;" 
d="M357 611q0 -43 -31.5 -74.5t-75.5 -31.5t-75.5 31.5t-31.5 74.5t31.5 74.5t75.5 31.5t75.5 -31.5t31.5 -74.5zM303 611q0 25 -15 40.5t-38 15.5t-38.5 -15.5t-15.5 -40.5q0 -24 15.5 -40t38.5 -16t38 16t15 40z" />
    <glyph glyph-name="ogonek" unicode="&#x2db;" 
d="M338 -164l-11 -50q-23 -14 -64 -14q-42 0 -71.5 24t-29.5 65q0 43 30.5 80.5t75.5 58.5h69q-120 -58 -120 -133q0 -23 15.5 -35.5t42.5 -12.5q37 0 63 17z" />
    <glyph glyph-name="tilde" unicode="&#x2dc;" 
d="M420 647q-23 -40 -56.5 -77.5t-52.5 -37.5q-17 0 -56 23t-47 23q-21 0 -65 -61l-52 23q24 41 57.5 77.5t52.5 36.5q17 0 56 -23t46 -23q20 0 66 62z" />
    <glyph glyph-name="hungarumlaut" unicode="&#x2dd;" 
d="M437 651q0 -8 -13 -23q-54 -61 -139 -113l-51 22q85 66 135 138q12 17 26 17q10 0 26 -16t16 -25zM287 651q1 -8 -12 -23q-51 -59 -139 -113l-51 22q82 64 135 138q12 17 26 17q10 0 25.5 -16t15.5 -25z" />
    <glyph glyph-name="Delta" unicode="&#x394;" horiz-adv-x="611" 
d="M572 152q0 -25 -17 -40t-38 -15v-97h-472v453h472v-246zM489 233v153h-153zM233 386h-160q0 -33 23 -56.5t56 -23.5t57 23.5t24 56.5zM489 27v81l-382 180q-19 9 -34 27v-288h416z" />
    <glyph glyph-name="Delta" unicode="&#x2206;" horiz-adv-x="611" 
d="M572 152q0 -25 -17 -40t-38 -15v-97h-472v453h472v-246zM489 233v153h-153zM233 386h-160q0 -33 23 -56.5t56 -23.5t57 23.5t24 56.5zM489 27v81l-382 180q-19 9 -34 27v-288h416z" />
    <glyph glyph-name="Omega" unicode="&#x3a9;" horiz-adv-x="611" 
d="M572 152q0 -25 -17 -40t-38 -15v-97h-472v453h472v-246zM489 233v153h-153zM233 386h-160q0 -33 23 -56.5t56 -23.5t57 23.5t24 56.5zM489 27v81l-382 180q-19 9 -34 27v-288h416z" />
    <glyph glyph-name="Omega" unicode="&#x2126;" horiz-adv-x="611" 
d="M572 152q0 -25 -17 -40t-38 -15v-97h-472v453h472v-246zM489 233v153h-153zM233 386h-160q0 -33 23 -56.5t56 -23.5t57 23.5t24 56.5zM489 27v81l-382 180q-19 9 -34 27v-288h416z" />
    <glyph glyph-name="pi" unicode="&#x3c0;" horiz-adv-x="611" 
d="M572 152q0 -25 -17 -40t-38 -15v-97h-472v453h472v-246zM489 233v153h-153zM233 386h-160q0 -33 23 -56.5t56 -23.5t57 23.5t24 56.5zM489 27v81l-382 180q-19 9 -34 27v-288h416z" />
    <glyph glyph-name="endash" unicode="&#x2013;" 
d="M502 199h-502v54h502v-54z" />
    <glyph glyph-name="emdash" unicode="&#x2014;" horiz-adv-x="1000" 
d="M1002 199h-1002v54h1002v-54z" />
    <glyph glyph-name="quoteleft" unicode="&#x2018;" horiz-adv-x="191" 
d="M149 485q0 -14 -20.5 -33.5t-32.5 -19.5q-13 0 -33.5 19.5t-20.5 33.5q0 35 24.5 84.5t54.5 79.5l28 -5q-20 -25 -33 -57t-13 -57q14 -3 30 -18.5t16 -26.5z" />
    <glyph glyph-name="quoteright" unicode="&#x2019;" horiz-adv-x="191" 
d="M149 597q0 -35 -24.5 -84.5t-54.5 -79.5l-28 5q20 25 33 57t13 57q-14 3 -30 18.5t-16 26.5q0 14 20.5 33.5t32.5 19.5q13 0 33.5 -19.5t20.5 -33.5z" />
    <glyph glyph-name="quotesinglbase" unicode="&#x201a;" horiz-adv-x="192" 
d="M151 45q0 -37 -25.5 -87.5t-55.5 -80.5l-28 5q46 56 46 117q-14 2 -30.5 18.5t-16.5 27.5q0 15 21 34.5t34 19.5t34 -20t21 -34z" />
    <glyph glyph-name="quotedblleft" unicode="&#x201c;" horiz-adv-x="355" 
d="M313 485q0 -14 -20.5 -33.5t-32.5 -19.5q-13 0 -33.5 19.5t-20.5 33.5q0 35 24.5 84.5t54.5 79.5l28 -5q-20 -25 -33 -57t-13 -57q14 -3 30 -18.5t16 -26.5zM149 485q0 -14 -20.5 -33.5t-32.5 -19.5q-13 0 -33.5 19.5t-20.5 33.5q0 35 24.5 84.5t54.5 79.5l28 -5
q-20 -25 -33 -57t-13 -57q14 -3 30 -18.5t16 -26.5z" />
    <glyph glyph-name="quotedblright" unicode="&#x201d;" horiz-adv-x="355" 
d="M313 597q0 -35 -24.5 -84.5t-54.5 -79.5l-28 5q20 25 33 57t13 57q-14 3 -30 18.5t-16 26.5q0 14 20.5 33.5t32.5 19.5q13 0 33.5 -19.5t20.5 -33.5zM149 597q0 -35 -24.5 -84.5t-54.5 -79.5l-28 5q20 25 33 57t13 57q-14 3 -30 18.5t-16 26.5q0 14 20.5 33.5t32.5 19.5
q13 0 33.5 -19.5t20.5 -33.5z" />
    <glyph glyph-name="quotedblbase" unicode="&#x201e;" horiz-adv-x="358" 
d="M317 45q0 -37 -25.5 -87.5t-55.5 -80.5l-29 5q21 25 34 58t13 59q-14 2 -30.5 18.5t-16.5 27.5q0 15 21 34.5t34 19.5t34 -20t21 -34zM151 45q0 -37 -25.5 -87.5t-55.5 -80.5l-28 5q46 56 46 117q-14 2 -30.5 18.5t-16.5 27.5q0 15 21 34.5t34 19.5t34 -20t21 -34z" />
    <glyph glyph-name="dagger" unicode="&#x2020;" horiz-adv-x="399" 
d="M357 383l-121 16l-13 -627h-47l-12 627l-122 -16v78l120 -16l-2 112h79l-2 -112l120 16v-78z" />
    <glyph glyph-name="daggerdbl" unicode="&#x2021;" horiz-adv-x="399" 
d="M357 -132l-120 16l2 -112h-79l2 112l-120 -16v78l122 -16l4 234l-4 235l-122 -16v78l120 -16l-2 112h79l-2 -112l120 16v-78l-121 16l-4 -235l4 -234l121 16v-78z" />
    <glyph glyph-name="bullet" unicode="&#x2022;" horiz-adv-x="364" 
d="M322 277q0 -60 -39.5 -99t-99.5 -39t-100.5 39t-40.5 99q0 61 40.5 100t100.5 39t99.5 -39t39.5 -100z" />
    <glyph glyph-name="ellipsis" unicode="&#x2026;" horiz-adv-x="578" 
d="M537 45q0 -14 -21 -34.5t-35 -20.5q-13 0 -34 21t-21 34t21 33.5t34 20.5q14 0 35 -20.5t21 -33.5zM344 45q0 -13 -21 -34t-34 -21q-14 0 -34.5 20.5t-20.5 34.5q0 13 20.5 33.5t34.5 20.5q13 0 34 -20.5t21 -33.5zM151 45q0 -13 -20.5 -34t-34.5 -21t-34.5 21t-20.5 34
t21 33.5t34 20.5t34 -20.5t21 -33.5z" />
    <glyph glyph-name="perthousand" unicode="&#x2030;" horiz-adv-x="1050" 
d="M1010 128q0 -62 -39 -100.5t-100 -38.5q-60 0 -99 38.5t-39 100.5q0 60 39.5 99.5t98.5 39.5q60 0 99.5 -39t39.5 -100zM946 128q0 36 -21.5 57.5t-53.5 21.5t-53 -21.5t-21 -57.5q0 -37 21 -59t53 -22t53.5 22t21.5 59zM658 128q0 -62 -39 -100.5t-99 -38.5t-99.5 38.5
t-39.5 100.5q0 60 39.5 99.5t99.5 39.5t99 -39.5t39 -99.5zM595 128q0 36 -21.5 57.5t-53.5 21.5t-53.5 -21.5t-21.5 -57.5q0 -37 21.5 -59t53.5 -22t53.5 22t21.5 59zM628 628l-525 -649l-38 32l525 649zM313 511q0 -62 -39.5 -101t-99.5 -39t-99 39t-39 101q0 61 39 100
t99 39t99.5 -39t39.5 -100zM249 511q0 36 -21.5 57.5t-53.5 21.5t-53 -21.5t-21 -57.5q0 -37 21 -58.5t53 -21.5t53.5 22t21.5 58z" />
    <glyph glyph-name="guilsinglleft" unicode="&#x2039;" horiz-adv-x="208" 
d="M167 110l-12 -27q-54 72 -117 119q-15 10 -15 24t15 24q63 47 117 119l12 -27q-28 -67 -59 -116q31 -49 59 -116z" />
    <glyph glyph-name="guilsinglright" unicode="&#x203a;" horiz-adv-x="208" 
d="M185 226q0 -14 -15 -24q-67 -50 -117 -119l-12 27q26 66 59 116q-33 50 -59 116l12 27q50 -69 117 -119q15 -10 15 -24z" />
    <glyph glyph-name="fraction" unicode="&#x2044;" horiz-adv-x="638" 
d="M601 628l-525 -649l-38 32l524 649z" />
    <glyph glyph-name="fraction" unicode="&#x2215;" horiz-adv-x="638" 
d="M601 628l-525 -649l-38 32l524 649z" />
    <glyph glyph-name="Euro" unicode="&#x20ac;" horiz-adv-x="492" 
d="M346 288l-9 -45h-165q14 -90 61 -138t106 -48q61 0 101 25l-8 -69q-32 -21 -99 -21q-89 0 -154.5 65.5t-82.5 184.5h-82v46h78q0 5 -0.5 15t-0.5 16t0.5 18t0.5 17h-78v46h83q18 116 83.5 181t152.5 65q68 0 118 -28l-14 -65q-41 28 -99 28q-60 0 -105.5 -47t-60.5 -134
h184l-9 -46h-180q-1 -11 -1 -36q0 -20 1 -30h179z" />
    <glyph glyph-name="trademark" unicode="&#x2122;" horiz-adv-x="416" 
d="M380 453h-32l-9 112l-58 -113h-11l-56 112l-9 -111h-31l15 185h22l67 -133l65 133h22zM162 609h-55v-156h-31v156h-55v29h141v-29z" />
    <glyph glyph-name="partialdiff" unicode="&#x2202;" horiz-adv-x="611" 
d="M572 152q0 -25 -17 -40t-38 -15v-97h-472v453h472v-246zM489 233v153h-153zM233 386h-160q0 -33 23 -56.5t56 -23.5t57 23.5t24 56.5zM489 27v81l-382 180q-19 9 -34 27v-288h416z" />
    <glyph glyph-name="product" unicode="&#x220f;" horiz-adv-x="466" 
d="M430 455q0 -85 -57 -140t-140 -55q-84 0 -140.5 55t-56.5 140t56.5 140t140.5 55q83 0 140 -55t57 -140zM390 455q0 70 -45 114.5t-112 44.5q-68 0 -113 -44.5t-45 -114.5t45 -114.5t113 -44.5t112.5 44.5t44.5 114.5zM324 503q0 -32 -23 -52t-54 -20h-30v-96h-43v239h73
q31 0 54 -20t23 -51zM282 503q0 34 -40 34h-25v-69h25q19 0 29.5 9.5t10.5 25.5z" />
    <glyph glyph-name="summation" unicode="&#x2211;" horiz-adv-x="611" 
d="M572 152q0 -25 -17 -40t-38 -15v-97h-472v453h472v-246zM489 233v153h-153zM233 386h-160q0 -33 23 -56.5t56 -23.5t57 23.5t24 56.5zM489 27v81l-382 180q-19 9 -34 27v-288h416z" />
    <glyph glyph-name="minus" unicode="&#x2212;" horiz-adv-x="416" 
d="M360 245h-304v57h304v-57z" />
    <glyph glyph-name="radical" unicode="&#x221a;" horiz-adv-x="567" 
d="M554 645h-80l-273 -652h-31l-99 234h-53l10 73h91l48 -112q11 -27 21 -56h2q41 108 77 193l162 387h125v-67z" />
    <glyph glyph-name="infinity" unicode="&#x221e;" horiz-adv-x="809" 
d="M752 0h-77v391h-214v-391h-77v391h-215v-391h-77v391h-79v62h79v67q0 93 50.5 142.5t137.5 49.5q84 0 155 -49q51 49 137 49q52 0 86 -14l-15 -65q-33 14 -66 14q-116 0 -116 -131v-63h291v-453zM398 605q-50 42 -113 42q-116 0 -116 -131v-63h215v67q0 48 14 85z" />
    <glyph glyph-name="integral" unicode="&#x222b;" horiz-adv-x="611" 
d="M572 152q0 -25 -17 -40t-38 -15v-97h-472v453h472v-246zM489 233v153h-153zM233 386h-160q0 -33 23 -56.5t56 -23.5t57 23.5t24 56.5zM489 27v81l-382 180q-19 9 -34 27v-288h416z" />
    <glyph glyph-name="approxequal" unicode="&#x2248;" horiz-adv-x="459" 
d="M415 357q-42 -48 -117 -48q-28 0 -72 19q-48 22 -71 22q-54 0 -96 -45l-15 63q43 49 118 49q31 0 71 -19q4 -2 16.5 -7.5l18.5 -8t16 -5t20 -2.5q57 0 97 45zM415 185q-42 -48 -117 -48q-28 0 -72 19q-48 22 -71 22q-54 0 -96 -45l-15 63q43 49 118 49q31 0 71 -19
q4 -2 16.5 -7.5l18.5 -8t16 -5t20 -2.5q57 0 97 45z" />
    <glyph glyph-name="notequal" unicode="&#x2260;" horiz-adv-x="626" 
d="M658 698l-15 -65q-33 14 -66 14q-116 0 -116 -131v-63h137l-13 -62h-124v-391h-77v391h-215v-391h-77v391h-79v62h79v67q0 93 50.5 142.5t137.5 49.5q84 0 155 -49q51 49 137 49q52 0 86 -14zM398 605q-50 42 -113 42q-116 0 -116 -131v-63h215v67q0 48 14 85z" />
    <glyph glyph-name="lessequal" unicode="&#x2264;" horiz-adv-x="458" 
d="M416 109l-374 123v91l374 123v-70l-312 -99l312 -99v-69zM416 0h-374v66h374v-66z" />
    <glyph glyph-name="greaterequal" unicode="&#x2265;" horiz-adv-x="458" 
d="M416 232l-374 -123v69l312 99l-312 99v70l374 -123v-91zM416 0h-374v66h374v-66z" />
    <glyph glyph-name="lozenge" unicode="&#x25ca;" horiz-adv-x="588" 
d="M506 277l-217 -217l-217 217l217 217zM433 277l-144 143l-144 -143l144 -144z" />
    <glyph glyph-name="apple" unicode="&#xf8ff;" horiz-adv-x="611" 
d="M569 152q0 -25 -17 -40t-38 -15v-97h-472v453h472v-246zM486 233v153h-153zM230 386h-160q0 -33 23 -56.5t56 -23.5t57 23.5t24 56.5zM486 27v81l-382 180q-19 9 -34 27v-288h416z" />
    </font>
</defs>
</svg>
